<?xml version="1.0" encoding="utf-8"?>
<!-- Generator: Adobe Illustrator 15.0.2, SVG Export Plug-In . SVG Version: 6.00 Build 0)  -->
<!DOCTYPE svg PUBLIC "-//W3C//DTD SVG 1.1//EN" "http://www.w3.org/Graphics/SVG/1.1/DTD/svg11.dtd">
<svg version="1.1" id="Calque_1" xmlns="http://www.w3.org/2000/svg" xmlns:xlink="http://www.w3.org/1999/xlink" x="0px" y="0px"
	 width="368.938px" height="158.832px" viewBox="0 0 368.938 158.832" enable-background="new 0 0 368.938 158.832"
	 xml:space="preserve">
<g>
	<path fill="#E6142D" d="M46.715,75.699c0,0,4.663,4.542,10.719,4.542c3.27,0,6.238-1.696,6.238-5.208
		c0-7.691-20.287-6.359-20.287-19.561c0-7.146,6.176-12.475,14.413-12.475c8.478,0,12.837,4.603,12.837,4.603l-3.39,6.359
		c0,0-4.119-3.755-9.508-3.755c-3.634,0-6.48,2.119-6.48,5.147c0,7.631,20.227,5.753,20.227,19.5
		c0,6.843-5.208,12.596-14.171,12.596c-9.568,0-14.837-5.874-14.837-5.874L46.715,75.699z"/>
	<path fill="#E6142D" d="M89.559,58.225c7.26,0,10.7,4.149,10.7,4.149l-3.058,4.749c0,0-2.893-3.002-7.26-3.002
		c-5.131,0-8.461,3.876-8.461,8.625c0,4.694,3.384,8.734,8.68,8.734c4.694,0,8.187-3.548,8.187-3.548l2.676,4.913
		c0,0-3.985,4.53-11.464,4.53c-9.226,0-15.121-6.496-15.121-14.576C74.438,64.885,80.333,58.225,89.559,58.225"/>
	<path fill="#E6142D" d="M105.12,47.962h6.878v6.169h-6.878V47.962z M105.12,58.88h6.933v27.84h-6.933V58.88z"/>
	<path fill="#E6142D" d="M130.777,58.225c8.025,0,12.337,5.841,12.337,13.21c0,0.819-0.163,2.675-0.163,2.675h-19.215
		c0.436,4.859,4.203,7.37,8.352,7.37c4.476,0,8.024-3.057,8.024-3.057l2.675,4.967c0,0-4.257,3.985-11.191,3.985
		c-9.225,0-14.957-6.66-14.957-14.575C116.64,64.23,122.48,58.225,130.777,58.225 M136.127,69.361
		c-0.109-3.767-2.456-5.787-5.513-5.787c-3.548,0-6.005,2.184-6.66,5.787H136.127z"/>
	<path fill="#E6142D" d="M147.758,58.88h6.66v3.22c0,1.038-0.11,1.911-0.11,1.911h0.11c1.201-2.347,4.257-5.786,9.88-5.786
		c6.169,0,9.663,3.221,9.663,10.59V86.72h-6.878V70.234c0-3.384-0.874-5.677-4.423-5.677c-3.711,0-6.441,2.347-7.478,5.677
		c-0.382,1.147-0.492,2.402-0.492,3.712V86.72h-6.932V58.88z"/>
	<path fill="#E6142D" d="M193.234,58.225c7.261,0,10.7,4.149,10.7,4.149l-3.058,4.749c0,0-2.894-3.002-7.261-3.002
		c-5.131,0-8.46,3.876-8.46,8.625c0,4.694,3.384,8.734,8.679,8.734c4.695,0,8.188-3.548,8.188-3.548l2.675,4.913
		c0,0-3.985,4.53-11.464,4.53c-9.227,0-15.121-6.496-15.121-14.576C178.113,64.885,184.008,58.225,193.234,58.225"/>
	<path fill="#E6142D" d="M220.969,58.225c8.025,0,12.337,5.841,12.337,13.21c0,0.819-0.163,2.675-0.163,2.675h-19.215
		c0.437,4.859,4.203,7.37,8.353,7.37c4.476,0,8.023-3.057,8.023-3.057l2.675,4.967c0,0-4.257,3.985-11.19,3.985
		c-9.226,0-14.957-6.66-14.957-14.575C206.831,64.23,212.672,58.225,220.969,58.225 M226.318,69.361
		c-0.108-3.767-2.455-5.787-5.513-5.787c-3.548,0-6.005,2.184-6.66,5.787H226.318z"/>
	<path fill="#E6142D" d="M239.86,78.422c0,0,3.057,3.057,7.588,3.057c1.965,0,3.657-0.873,3.657-2.511
		c0-4.149-13.537-3.603-13.537-12.556c0-5.186,4.639-8.188,10.644-8.188c6.278,0,9.335,3.166,9.335,3.166l-2.565,5.132
		c0,0-2.565-2.402-6.824-2.402c-1.801,0-3.548,0.764-3.548,2.511c0,3.93,13.537,3.439,13.537,12.392
		c0,4.64-4.038,8.352-10.645,8.352c-6.932,0-10.808-4.095-10.808-4.095L239.86,78.422z"/>
	<path fill="#E6142D" d="M264.257,43.724h16.592c8.055,0,13.686,5.632,13.686,13.989s-5.631,14.171-13.686,14.171h-8.78V86.72
		h-7.812V43.724z M279.396,65.101c4.542,0,7.207-2.907,7.207-7.388c0-4.421-2.665-7.267-7.086-7.267h-7.448v14.655H279.396z"/>
	<path fill="#E6142D" d="M310.601,58.225c8.516,0,15.34,6.059,15.34,14.575c0,8.571-6.824,14.576-15.285,14.576
		c-8.517,0-15.34-6.005-15.34-14.576C295.315,64.284,302.139,58.225,310.601,58.225 M310.655,81.479c4.476,0,8.243-3.494,8.243-8.68
		c0-5.131-3.768-8.679-8.243-8.679c-4.531,0-8.297,3.548-8.297,8.679C302.358,77.985,306.124,81.479,310.655,81.479"/>
	<path fill="#E6142D" d="M50.299,100.422c3.632,0,5.501,2.036,5.501,2.036l-1.302,2.016c0,0-1.7-1.574-4.073-1.574
		c-3.149,0-4.997,2.351-4.997,5.123c0,2.834,1.911,5.333,5.018,5.333c2.582,0,4.325-1.89,4.325-1.89l1.428,1.952
		c0,0-2.058,2.414-5.858,2.414c-4.556,0-7.706-3.38-7.706-7.768C42.635,103.738,45.912,100.422,50.299,100.422"/>
	<polygon fill="#E6142D" points="58.7,100.673 67.624,100.673 67.624,103.004 61.408,103.004 61.408,106.909 66.427,106.909 
		66.427,109.239 61.408,109.239 61.408,113.25 67.959,113.25 67.959,115.58 58.7,115.58 	"/>
	<path fill="#E6142D" d="M68.864,100.673h2.918l3.276,9.722c0.294,0.86,0.546,2.184,0.567,2.184h0.042
		c0.021,0,0.273-1.323,0.567-2.184l3.296-9.722h2.897l-5.438,14.907h-2.687L68.864,100.673z"/>
	<rect x="84.299" y="100.673" fill="#E6142D" width="2.708" height="14.907"/>
	<path fill="#E6142D" d="M90.788,100.673h5.753c2.792,0,4.745,1.953,4.745,4.85c0,2.898-1.953,4.914-4.745,4.914h-3.045v5.145
		h-2.708V100.673z M96.037,108.085c1.575,0,2.499-1.008,2.499-2.563c0-1.531-0.924-2.519-2.457-2.519h-2.583v5.081H96.037z"/>
	<path fill="#E6142D" d="M110.358,100.421c4.388,0,7.706,3.339,7.706,7.601c0,4.389-3.318,7.812-7.706,7.812
		c-4.388,0-7.706-3.423-7.706-7.812C102.652,103.76,105.971,100.421,110.358,100.421 M110.358,113.354
		c2.729,0,4.913-2.268,4.913-5.333c0-2.938-2.184-5.122-4.913-5.122s-4.913,2.184-4.913,5.122
		C105.445,111.087,107.629,113.354,110.358,113.354"/>
	<polygon fill="#E6142D" points="120.817,100.673 129.383,100.673 129.383,103.004 123.525,103.004 123.525,107.225 128.46,107.225 
		128.46,109.555 123.525,109.555 123.525,115.58 120.817,115.58 	"/>
</g>
</svg>
