<?xml version="1.0" encoding="utf-8"?>
<!-- Generator: Adobe Illustrator 15.0.2, SVG Export Plug-In . SVG Version: 6.00 Build 0)  -->
<!DOCTYPE svg PUBLIC "-//W3C//DTD SVG 1.1//EN" "http://www.w3.org/Graphics/SVG/1.1/DTD/svg11.dtd">
<svg version="1.1" xmlns="http://www.w3.org/2000/svg" xmlns:xlink="http://www.w3.org/1999/xlink" x="0px" y="0px"
	 width="402.813px" height="174.083px" viewBox="7.594 6.063 402.813 174.083" enable-background="new 7.594 6.063 402.813 174.083"
	 xml:space="preserve">
<g id="Calque_2">
	<g>
		<path d="M372.885,97.104V15.167c0-5.006-4.098-9.104-9.104-9.104H16.698c-5.006,0-9.104,4.099-9.104,9.104v127.458l36.417-36.416
			h319.771C368.787,106.208,372.885,102.109,372.885,97.104z"/>
	</g>
	<g opacity="0.5">
		<path d="M401.303,34.479h-18.209v81.938H233.01v18.207c0,5.006,4.1,9.104,9.105,9.104H373.99l36.416,36.418V43.583
			C410.406,38.578,406.307,34.479,401.303,34.479z"/>
	</g>
</g>
<g id="Calque_1">
	<g>
		<path fill="#FFFFFF" d="M74.833,30.613c-5.166-0.475-9.2-0.716-11.994-0.716c-7.005,0-12.691,1.873-16.903,5.563
			c-4.996,4.366-8.111,10.186-9.258,17.294c-0.287,1.713-0.432,3.428-0.432,5.097c0,6.429,1.836,12.107,5.458,16.879
			c3.991,5.205,9.186,7.845,15.44,7.845c5.142,0,9.8-1.786,13.846-5.309c1.492-1.319,2.779-2.652,3.843-3.977v7.501h5.165V6.063
			h-5.165V30.613z M48.976,39.612c3.506-3.105,7.425-4.679,11.649-4.679c0.41,0,0.826,0.015,1.278,0.045
			c1.521,0,5.879,0.274,12.953,0.814c0.088,2.192,0.079,9.371-0.024,21.375c-0.055,6.45-2.285,11.643-6.625,15.434
			c-3.573,3.078-7.381,4.639-11.318,4.639c-5.056,0-9.258-2.805-12.49-8.341c-1.814-3.024-2.733-6.684-2.733-10.878
			c0-3.38,0.618-6.753,1.839-10.026C44.83,44.409,46.668,41.591,48.976,39.612z"/>
		<path fill="#FFFFFF" d="M116.165,29.898c-6.566-0.46-12.271,1.414-16.938,5.562c-4.996,4.366-8.111,10.186-9.258,17.294
			c-0.286,1.715-0.432,3.43-0.432,5.097c0,6.428,1.836,12.107,5.458,16.879c3.991,5.205,9.186,7.845,15.44,7.845
			c5.142,0,9.8-1.786,13.845-5.311c1.474-1.302,2.733-2.62,3.759-3.933v7.457h5.25V31.14l-0.445-0.05
			C126.232,30.356,120.611,29.955,116.165,29.898z M128.04,35.791v21.376c-0.056,6.452-2.258,11.646-6.541,15.434
			c-3.572,3.078-7.409,4.639-11.403,4.639c-5,0-9.202-2.806-12.486-8.336c-1.761-3.023-2.652-6.685-2.652-10.883
			c0-3.381,0.619-6.754,1.839-10.026c1.325-3.589,3.137-6.408,5.387-8.383c3.506-3.105,7.448-4.679,11.72-4.679
			c0.416,0,0.836,0.015,1.294,0.045C116.716,34.978,121.037,35.252,128.04,35.791z"/>
		<path fill="#FFFFFF" d="M156.75,75.412c-1.485-1.324-2.431-3.818-2.811-7.414c-0.112-1.054-0.197-4.899-0.253-11.429
			c-0.11-6.88-0.113-13.826-0.008-20.656h10.973v-5.25h-10.965v-8.244h-5.25v8.244h-7.139v5.25h7.131
			c-0.105,6.948-0.103,13.985,0.008,20.927c0.112,7.231,0.257,11.707,0.43,13.314c0.523,4.076,1.868,7.07,3.994,8.898
			c1.316,1.138,3.382,1.865,6.133,2.159c0.992,0.116,3.123,0.173,6.518,0.173h0.5v-4.666l-0.512,0.012
			C160.902,76.844,157.932,76.391,156.75,75.412z"/>
		<path fill="#FFFFFF" d="M198.181,29.898c-6.564-0.46-12.27,1.414-16.938,5.562c-4.997,4.366-8.112,10.186-9.258,17.294
			c-0.286,1.715-0.433,3.43-0.433,5.097c0,6.428,1.836,12.107,5.458,16.879c3.991,5.205,9.187,7.845,15.441,7.845
			c5.142,0,9.799-1.786,13.844-5.311c1.474-1.302,2.734-2.62,3.758-3.933v7.457h5.25V31.14l-0.443-0.05
			C208.249,30.356,202.628,29.955,198.181,29.898z M210.057,35.791v21.376c-0.055,6.452-2.257,11.646-6.541,15.434
			c-3.571,3.078-7.408,4.639-11.402,4.639c-5,0-9.202-2.806-12.487-8.336c-1.76-3.023-2.652-6.685-2.652-10.883
			c0-3.381,0.619-6.754,1.84-10.026c1.324-3.589,3.137-6.408,5.387-8.383c3.505-3.105,7.448-4.679,11.719-4.679
			c0.415,0,0.835,0.015,1.294,0.045C198.734,34.978,203.054,35.252,210.057,35.791z"/>
		<path fill="#FFFFFF" d="M270.551,52.644c-0.344-7.527-3.061-13.594-8.074-18.032c-3.816-3.354-8.787-5.054-14.777-5.054
			c-0.842,0-1.711,0.029-2.551,0.085c-2.01,0-7.473,0.389-16.701,1.192l-0.457,0.04v75.375h5.25V81.263
			c5.164,0.475,9.168,0.716,11.908,0.716c6.725,0,12.268-1.872,16.479-5.563c5.119-4.486,8.092-10.774,8.836-18.674
			c0.059-0.479,0.088-1.128,0.088-1.896c0.059-0.821,0.072-1.401,0.041-1.777C270.565,53.738,270.551,53.272,270.551,52.644z
			 M265.217,53.261c0,0.451-0.027,1.351-0.084,2.72c0,0.649-0.057,1.399-0.164,2.212c-1.107,6.595-3.256,11.33-6.379,14.07
			c-3.557,3.099-7.389,4.669-11.395,4.669c-0.33,0-0.662-0.011-1.027-0.032c-1.588,0-5.938-0.274-12.928-0.813V35.608
			c5.102-0.533,9.453-0.83,12.959-0.886c5.492-0.326,9.975,1.081,13.311,4.2C262.856,42.048,264.778,46.884,265.217,53.261z"/>
		<path fill="#FFFFFF" d="M300.99,29.644c-6.07,0-11.498,2.6-16.139,7.729c-4.625,5.114-6.971,11.317-6.971,18.438
			c0,8.023,2.131,14.456,6.334,19.119c4.213,4.677,9.857,7.049,16.773,7.049c7.201,0,12.918-2.345,16.994-6.967
			c4.059-4.606,6.115-11.065,6.115-19.2c0-7.12-2.33-13.323-6.926-18.438C312.559,32.245,307.115,29.644,300.99,29.644z
			 M318.85,55.811c0,6.362-1.674,11.498-4.977,15.268c-3.285,3.75-7.592,5.651-12.799,5.651c-5.32,0-9.654-1.873-12.883-5.566
			c-3.244-3.713-4.891-8.878-4.891-15.353c0-5.685,1.816-10.65,5.4-14.757c3.566-4.088,7.729-6.161,12.373-6.161
			c4.641,0,8.805,2.073,12.373,6.161C317.033,45.164,318.85,50.128,318.85,55.811z"/>
		<rect x="335.76" y="6.063" fill="#FFFFFF" width="5.25" height="74.896"/>
	</g>
</g>
</svg>
