<?xml version="1.0" encoding="utf-8"?>
<!-- Generator: Adobe Illustrator 15.0.2, SVG Export Plug-In . SVG Version: 6.00 Build 0)  -->
<!DOCTYPE svg PUBLIC "-//W3C//DTD SVG 1.1//EN" "http://www.w3.org/Graphics/SVG/1.1/DTD/svg11.dtd">
<svg version="1.1" xmlns="http://www.w3.org/2000/svg" xmlns:xlink="http://www.w3.org/1999/xlink" x="0px" y="0px" width="1412px"
	 height="664px" viewBox="0 0 1412 664" enable-background="new 0 0 1412 664" xml:space="preserve">
<g id="demicercle">
	<g>
		<g>
			<polyline points="837.305,289.848 847.531,272.136 867.984,272.136 878.21,289.848 			"/>
		</g>
		<g>
			<polygon points="850.168,258.903 842.578,245.757 850.168,232.612 865.347,232.612 872.937,245.757 865.347,258.903 			"/>
		</g>
		<g>
			<polygon points="854.441,207.41 851.125,201.667 854.441,195.923 861.073,195.923 864.39,201.667 861.073,207.41 			"/>
		</g>
		<g>
			<polygon points="851.577,168.28 845.396,157.576 851.577,146.871 863.938,146.871 870.118,157.576 863.938,168.28 			"/>
		</g>
		<g>
			<polygon points="890.17,278.74 883.855,267.803 890.17,256.865 902.8,256.865 909.114,267.803 902.8,278.74 			"/>
		</g>
		<g>
			<polygon points="888.301,237.886 880.118,223.712 888.301,209.538 904.668,209.538 912.852,223.712 904.668,237.886 			"/>
		</g>
		<g>
			<polygon points="890.423,190.121 884.361,179.621 890.423,169.122 902.547,169.122 908.609,179.621 902.547,190.121 			"/>
		</g>
		<g>
			<polygon points="890.91,145.187 885.333,135.53 890.91,125.874 902.06,125.874 907.636,135.53 902.06,145.187 			"/>
		</g>
		<g>
			<polygon points="806.302,289.848 797.505,274.612 799.296,257.892 806.302,245.757 831.758,245.757 844.486,267.803 
				831.758,289.848 			"/>
		</g>
		<g>
			<polygon points="810.073,239.226 805.117,230.641 812.824,208.198 827.987,208.198 836.945,223.712 827.987,239.226 			"/>
		</g>
		<g>
			<polyline points="917.454,289.848 926.333,274.469 942.571,274.469 941.313,282.563 941.125,289.848 			"/>
		</g>
		<g>
			<polygon points="929.228,256.122 923.244,245.757 929.228,235.393 941.196,235.393 947.18,245.757 941.196,256.122 			"/>
		</g>
		<g>
			<polygon points="929.021,212.391 922.829,201.667 929.021,190.942 941.403,190.942 947.595,201.667 941.403,212.391 			"/>
		</g>
		<g>
			<polygon points="927.689,170.605 920.167,157.576 927.689,144.546 942.735,144.546 950.257,157.576 942.735,170.605 			"/>
		</g>
		<g>
			<polygon points="928.957,124.319 922.701,113.485 928.957,102.65 941.467,102.65 947.723,113.485 941.467,124.319 			"/>
		</g>
		<g>
			<polygon points="967.649,233.575 961.955,223.712 967.947,213.333 979.931,213.333 985.481,222.946 976.375,227.438 			"/>
		</g>
		<g>
			<polygon points="965.682,193.922 957.425,179.621 965.682,165.32 982.196,165.32 990.453,179.621 982.196,193.922 			"/>
		</g>
		<g>
			<polygon points="965.711,105.691 957.483,91.439 964.712,78.917 973.043,77.188 982.167,77.188 990.395,91.439 982.167,105.691 
							"/>
		</g>
		<g>
			<polygon points="963.986,152.77 954.033,135.53 963.986,118.291 983.892,118.291 993.845,135.53 983.892,152.77 			"/>
		</g>
		<g>
			<polygon points="1084.875,284.875 1084.063,277.938 1083.37,274.198 1099.155,274.198 1108.191,289.848 1085,289.75 			"/>
		</g>
		<g>
			<polygon points="1083.887,256.552 1077.655,245.757 1083.887,234.962 1096.353,234.962 1102.585,245.757 1096.353,256.552 			"/>
		</g>
		<g>
			<polygon points="1083.453,213.212 1076.788,201.667 1083.453,190.121 1096.786,190.121 1103.452,201.667 1096.786,213.212 			"/>
		</g>
		<g>
			<polygon points="1086.237,164.3 1082.354,157.576 1086.237,150.851 1094.003,150.851 1097.886,157.576 1094.003,164.3 			"/>
		</g>
		<g>
			<polygon points="1082.293,127.041 1074.467,113.485 1082.293,99.929 1097.946,99.929 1105.773,113.485 1097.946,127.041 			"/>
		</g>
		<g>
			<polygon points="1118.815,285.182 1108.781,267.803 1118.815,250.424 1138.882,250.424 1148.916,267.803 1138.882,285.182 			"/>
		</g>
		<g>
			<polygon points="1121.703,236.088 1114.558,223.712 1121.703,211.336 1135.994,211.336 1143.14,223.712 1135.994,236.088 			"/>
		</g>
		<g>
			<polygon points="1124.541,187.083 1120.232,179.621 1124.541,172.159 1133.157,172.159 1137.466,179.621 1133.157,187.083 			"/>
		</g>
		<g>
			<polygon points="1123.326,145.096 1117.804,135.53 1123.326,125.965 1134.371,125.965 1139.894,135.53 1134.371,145.096 			"/>
		</g>
		<g>
			<polygon points="1002.164,175.768 991.66,157.576 1002.164,139.384 1023.17,139.384 1033.674,157.576 1023.17,175.768 			"/>
		</g>
		<g>
			<polygon points="1001.863,132.197 991.06,113.485 1001.863,94.773 1023.47,94.773 1034.273,113.485 1023.47,132.197 			"/>
		</g>
		<g>
			<polygon points="1005.414,83.956 999.612,73.908 1009.25,73.5 1017.5,73.545 1025.743,73.869 1019.919,83.956 			"/>
		</g>
		<g>
			<polygon points="1000.097,218.653 990.29,201.667 1001.478,182.288 1023.855,182.288 1035.044,201.667 1025.243,218.537 
				1016.813,217.5 1009,217.563 			"/>
		</g>
		<g>
			<polygon points="1051.876,228.887 1046.637,225.824 1045.418,223.712 1048.405,218.537 1054.382,218.537 1057.369,223.712 
				1054.382,228.887 			"/>
		</g>
		<g>
			<polygon points="1041.36,197 1031.326,179.621 1041.36,162.242 1061.429,162.242 1071.461,179.621 1061.429,197 			"/>
		</g>
		<g>
			<polygon points="1042.953,150.15 1034.513,135.53 1042.953,120.911 1059.835,120.911 1068.274,135.53 1059.835,150.15 			"/>
		</g>
		<g>
			<polygon points="1039.82,111.485 1028.247,91.439 1037.792,74.907 1053.949,77.376 1068.309,80.646 1074.54,91.439 
				1062.968,111.485 			"/>
		</g>
		<g>
			<polyline points="1144.912,289.848 1156.245,270.222 1178.905,270.222 1190.238,289.848 			"/>
		</g>
		<g>
			<polygon points="1160.155,258.609 1152.735,245.757 1160.155,232.905 1174.995,232.905 1182.415,245.757 1174.995,258.609 			"/>
		</g>
		<g>
			<polygon points="1163.303,209.066 1159.031,201.667 1163.303,194.267 1171.848,194.267 1176.119,201.667 1171.848,209.066 			"/>
		</g>
		<g>
			<polygon points="1161.122,168.753 1154.668,157.576 1161.122,146.398 1174.028,146.398 1180.482,157.576 1174.028,168.753 			"/>
		</g>
		<g>
			<polygon points="1198.507,237.213 1190.712,223.712 1198.507,210.211 1214.098,210.211 1219.879,227.198 1214.098,237.213 			"/>
		</g>
		<g>
			<polygon points="1194.303,288.586 1182.303,267.803 1194.303,247.02 1218.302,247.02 1227.354,262.698 1228.249,271.357 
				1218.302,288.586 			"/>
		</g>
	</g>
</g>
<g id="texte">
	<g>
		<path d="M251.49,394.478l9.704-69.048h16.362l-28.1,199.945l-1.9,27.488h-15.38l0.979-20.943l-0.936-0.326
			c-17.858,19.961-37.666,25.851-54.355,25.851c-45.486,0-58.426-35.995-52.033-81.483c7.681-54.649,38.97-88.683,87.401-88.683
			C228.286,387.278,239.652,390.224,251.49,394.478z M249.237,410.512c-8.146-4.908-21.901-9.489-40.227-9.489
			c-38.941,0-60.47,29.779-66.448,72.321c-5.105,36.323,0.584,70.357,38.544,70.357c31.088,0,52.448-21.599,55.069-40.252
			L249.237,410.512z"/>
		<path d="M412.892,526.685l-1.389,26.179h-15.707l0.934-20.616l-0.608-0.327c-11.003,13.09-28.457,25.524-54.637,25.524
			c-47.776,0-58.937-34.687-52.82-78.21c8.141-57.923,39.757-91.956,92.77-91.956c9.817,0,31.375,2.618,49.717,9.489
			L412.892,526.685z M413.178,408.223c-6.085-3.273-20.959-6.873-37.321-6.873c-44.832,0-64.714,34.36-71.152,80.175
			c-4.139,29.452,0.706,62.503,39.976,62.503c32.396,0,52.448-21.598,55.392-42.541L413.178,408.223z"/>
		<path d="M505.966,325.43l-9.106,64.794h46.469l-3.081,21.925h-46.469l-13.612,96.865c-3.036,21.598,4.507,28.47,19.887,28.47
			c11.126,0,19.952-4.581,25.975-7.854l5.135,17.018c-10.409,6.544-25.405,10.798-38.495,10.798
			c-43.523,0-41.291-25.197-37.934-49.085l25.708-182.93H505.966z"/>
		<path d="M682.288,521.449l-1.471,31.414h-33.705l0.146-17.344l-1.263-0.326c-12.214,14.725-29.915,21.925-47.913,21.925
			c-46.141,0-59.541-32.725-52.964-79.521c8.094-57.596,42.043-94.246,98.328-94.246c10.799,0,34.319,2.617,56.639,11.453
			L682.288,521.449z M658.481,416.076c-4.586-2.291-13.801-4.255-23.945-4.255c-31.087,0-45.651,29.125-50.618,64.468
			c-3.817,27.16-0.906,53.014,26.582,53.014c20.289,0,34.093-14.398,36.07-28.471L658.481,416.076z"/>
		<path d="M728.267,513.268c14.726,0,21.993,8.835,20.153,21.926c-1.794,12.762-11.355,22.579-25.426,22.579
			c-15.381,0-21.946-9.163-20.106-22.253C704.682,522.758,714.522,513.268,728.267,513.268z"/>
		<path d="M831.345,552.863h-68.066l30.583-217.617h83.446c53.34,0,82.615,24.543,76.131,70.686
			c-7.221,51.377-49.56,77.884-103.555,77.884h-8.835L831.345,552.863z M853.688,431.129c16.362,0,26.731-3.927,29.215-21.598
			c2.023-14.399-3.229-21.271-15.664-21.271h-12.762l-6.024,42.869H853.688z"/>
		<path d="M1039.573,556.791c-58.249,0-87.647-37.633-77.162-112.245c11.773-83.774,66.636-113.227,112.448-113.227
			c48.76,0,86.742,30.106,75.061,113.227C1139.389,519.484,1096.84,556.791,1039.573,556.791z M1046.509,523.738
			c39.596,0,57.176-38.941,62.695-78.211c4.69-33.379,0.842-80.502-41.045-80.502c-39.269,0-59.14,38.942-64.613,77.885
			C998.304,480.215,1001.677,523.738,1046.509,523.738z"/>
		<path d="M1188.515,335.246h25.524l-27.456,195.365h97.19l-3.127,22.252h-122.715L1188.515,335.246z"/>
	</g>
</g>
</svg>
