<?xml version="1.0" encoding="utf-8"?>
<!-- Generator: Adobe Illustrator 15.0.2, SVG Export Plug-In . SVG Version: 6.00 Build 0)  -->
<!DOCTYPE svg PUBLIC "-//W3C//DTD SVG 1.1//EN" "http://www.w3.org/Graphics/SVG/1.1/DTD/svg11.dtd">
<svg version="1.1" id="Calque_1" xmlns="http://www.w3.org/2000/svg" xmlns:xlink="http://www.w3.org/1999/xlink" x="0px" y="0px"
	 width="142.667px" height="117.333px" viewBox="0 0 142.667 117.333" enable-background="new 0 0 142.667 117.333"
	 xml:space="preserve">
<polygon fill="#FFCF64" points="119.279,24.534 59.628,17.707 25.404,26.887 25.404,72.855 59.628,100.929 119.279,79.816 "/>
<path fill="#1B181C" d="M62.371,39.849c0,0.482,0.041,0.546,0.601,0.563v0.32h-3.431v-0.32c0.555-0.017,0.607-0.081,0.607-0.563
	v-4.666c0-0.482-0.052-0.552-0.607-0.569V34.3h3.431v0.313c-0.561,0.018-0.601,0.087-0.601,0.569V39.849z"/>
<path fill="#1B181C" d="M65.746,35.607l0.128,0.674c0.575-0.383,0.883-0.691,1.574-0.691c1.046,0,1.54,0.616,1.54,1.569v2.702
	c0,0.5,0.063,0.523,0.558,0.552v0.32h-2.998v-0.32c0.313-0.035,0.36-0.093,0.36-0.377v-2.748c0-0.663-0.187-0.877-0.465-0.877
	c-0.319,0-0.518,0.238-0.518,0.936v2.562c0,0.279,0.053,0.471,0.354,0.505v0.32h-2.995v-0.32c0.502-0.029,0.552,0.035,0.552-0.476
	v-3.3c0-0.267-0.049-0.372-0.206-0.401l-0.285-0.052v-0.32L65.746,35.607z"/>
<path fill="#1B181C" d="M69.964,38.803h0.325c0.326,0.791,0.994,1.691,1.673,1.691c0.338,0,0.588-0.146,0.588-0.575
	c0-0.383-0.354-0.633-1.041-0.93c-0.802-0.337-1.487-0.68-1.487-1.749c0-1.058,0.796-1.65,2.186-1.65
	c0.521,0,1.149,0.104,1.627,0.349v1.493h-0.326c-0.309-0.836-0.813-1.464-1.313-1.464c-0.325,0-0.587,0.168-0.587,0.534
	c0,0.343,0.284,0.558,1.196,0.93c0.946,0.384,1.396,0.721,1.396,1.627c0,1.145-0.818,1.801-2.261,1.801
	c-0.5,0-1.359-0.099-1.824-0.424L69.964,38.803z"/>
<path fill="#1B181C" d="M77.063,36.171v2.986c0,0.703,0.128,0.988,0.535,0.988c0.14,0,0.228-0.023,0.349-0.07l0.069,0.279
	c-0.587,0.32-1.046,0.506-1.621,0.506c-0.899,0-1.411-0.343-1.411-1.313v-3.375h-0.5v-0.453h0.559l1.23-1.173h0.79v1.173H77.9v0.453
	L77.063,36.171L77.063,36.171z"/>
<path fill="#1B181C" d="M78.737,34.62c0-0.465,0.372-0.819,0.964-0.819c0.604,0,0.978,0.354,0.978,0.819s-0.372,0.819-0.978,0.819
	C79.109,35.439,78.737,35.084,78.737,34.62z M80.759,35.607l0.041,0.035v4.218c0,0.5,0.052,0.523,0.552,0.552v0.32H78.11v-0.32
	c0.513-0.029,0.558-0.052,0.558-0.552v-3.225c0-0.267-0.045-0.372-0.209-0.401l-0.289-0.052v-0.32L80.759,35.607z"/>
<path fill="#1B181C" d="M84.169,36.171v2.986c0,0.703,0.127,0.988,0.541,0.988c0.134,0,0.221-0.023,0.343-0.07l0.063,0.279
	c-0.582,0.32-1.047,0.506-1.615,0.506c-0.906,0-1.405-0.343-1.405-1.313v-3.375h-0.5v-0.453h0.546l1.243-1.173h0.784v1.173H85v0.453
	L84.169,36.171L84.169,36.171z"/>
<path fill="#1B181C" d="M88.707,40.099c-0.168,0.122-0.731,0.761-1.48,0.761c-1.018,0-1.645-0.401-1.645-1.575v-2.736
	c0-0.268-0.059-0.384-0.215-0.407l-0.272-0.047v-0.313l2.51-0.122l0.058,0.035v3.503c0,0.563,0.203,0.849,0.465,0.849
	c0.285,0,0.5-0.14,0.5-1.104v-2.394c0-0.268-0.059-0.384-0.215-0.407l-0.272-0.047v-0.313l2.51-0.122l0.063,0.035v4.166
	c0,0.505,0.053,0.523,0.559,0.558v0.314H88.86L88.707,40.099z"/>
<path fill="#1B181C" d="M94.146,36.171v2.986c0,0.703,0.128,0.988,0.534,0.988c0.14,0,0.221-0.023,0.349-0.07l0.069,0.279
	c-0.58,0.32-1.045,0.506-1.626,0.506c-0.896,0-1.406-0.343-1.406-1.313v-3.375h-0.5v-0.453h0.553l1.237-1.173h0.79v1.173h0.825
	v0.453L94.146,36.171L94.146,36.171z"/>
<path fill="#1B181C" d="M62.873,46.547c0-0.68-0.296-0.691-0.453-0.691c-0.305,0-0.616,0.575-0.616,2.085
	c0,1.551,0.369,2.063,0.724,2.063c0.255,0,0.354-0.261,0.354-0.511L62.873,46.547z M64.968,49.743c0,0.505,0.046,0.523,0.558,0.552
	v0.32H63.07l-0.087-0.477c-0.543,0.407-0.982,0.604-1.444,0.604c-1.223,0-1.909-0.901-1.909-2.603c0-1.987,1.147-2.667,2.612-2.667
	c0.285,0,0.523,0.041,0.642,0.076v-0.964c0-0.279-0.049-0.384-0.209-0.413L62.39,44.13v-0.32l2.548-0.215l0.029,0.023L64.968,49.743
	L64.968,49.743z"/>
<path fill="#1B181C" d="M68.721,47.669c0.262-0.023,0.337-0.052,0.337-0.447c0-0.331,0-1.371-0.441-1.371
	c-0.396,0-0.5,0.993-0.5,1.853L68.721,47.669z M68.116,48.093c0.018,1.045,0.349,1.795,1.162,1.795c0.662,0,1.028-0.116,1.343-0.796
	l0.261,0.14c-0.377,1.203-1.29,1.511-2.335,1.511c-1.755,0-2.604-0.755-2.604-2.609c0-1.731,0.941-2.661,2.649-2.661
	c2.371,0,2.394,1.604,2.394,2.115c0,0.337-0.087,0.506-0.424,0.506L68.116,48.093L68.116,48.093z"/>
<path fill="#1B181C" d="M71.539,48.686h0.343c0.313,0.791,0.98,1.691,1.666,1.691c0.332,0,0.582-0.146,0.582-0.569
	c0-0.389-0.354-0.639-1.041-0.936c-0.801-0.337-1.48-0.68-1.48-1.749c0-1.057,0.79-1.65,2.18-1.65c0.521,0,1.149,0.11,1.627,0.349
	v1.493h-0.326c-0.309-0.836-0.813-1.464-1.313-1.464c-0.331,0-0.587,0.168-0.587,0.534c0,0.343,0.291,0.564,1.197,0.93
	c0.946,0.383,1.396,0.721,1.396,1.627c0,1.145-0.82,1.801-2.25,1.801c-0.511,0-1.371-0.099-1.83-0.424L71.539,48.686z"/>
<path fill="#1B181C" d="M63.623,56.064c-0.462-1.232-0.906-1.784-1.551-1.784c-0.404,0-0.819,0.163-0.819,0.802
	c0,0.511,0.546,0.918,1.226,1.203c1.464,0.627,1.966,1.017,1.966,2.213c0,1.145-0.7,2.155-2.69,2.155
	c-0.613,0-1.522-0.168-2.085-0.54l-0.137-1.917h0.366c0.581,1.271,1.098,2.074,1.926,2.074c0.497,0,0.802-0.279,0.802-0.785
	c0-0.383-0.09-0.802-1.089-1.231c-1.641-0.703-1.984-1.278-1.984-2.295c0-1.29,0.906-2.045,2.486-2.045
	c0.724,0,1.415,0.134,1.961,0.36v1.79H63.623z"/>
<path fill="#1B181C" d="M69.952,55.803c-0.36,0-0.441,0.047-0.587,0.372c-0.296,0.633-0.958,2.533-1.51,4.027
	c-0.471,1.271-0.808,2.213-1.749,2.213c-0.523,0-0.906-0.285-0.906-0.703c0-0.424,0.36-0.809,0.743-0.809
	c0.221,0,0.279,0.082,0.419,0.215c0.139,0.141,0.267,0.256,0.43,0.256c0.244,0,0.36-0.256,0.232-0.551
	c-0.535-1.181-1.674-3.719-2.08-4.567c-0.154-0.326-0.203-0.418-0.59-0.454v-0.319h3.291v0.319l-0.325,0.035
	c-0.186,0.023-0.203,0.139-0.122,0.36c0.25,0.715,0.593,1.493,0.896,2.226h0.04c0.25-0.866,0.512-1.871,0.593-2.266
	c0.041-0.209,0.006-0.296-0.157-0.319l-0.36-0.035v-0.319h1.743L69.952,55.803L69.952,55.803z"/>
<path fill="#1B181C" d="M69.999,58.568h0.337c0.313,0.791,0.987,1.69,1.673,1.69c0.332,0,0.58-0.146,0.58-0.568
	c0-0.391-0.358-0.639-1.033-0.936c-0.808-0.331-1.487-0.68-1.487-1.749c0-1.057,0.79-1.65,2.173-1.65
	c0.523,0,1.162,0.11,1.633,0.349v1.493H73.55c-0.309-0.836-0.813-1.464-1.318-1.464c-0.326,0-0.581,0.168-0.581,0.534
	c0,0.343,0.29,0.564,1.196,0.93c0.953,0.383,1.395,0.721,1.395,1.627c0,1.15-0.818,1.807-2.254,1.807
	c-0.506,0-1.365-0.104-1.83-0.43L69.999,58.568z"/>
<path fill="#1B181C" d="M77.104,55.937v2.986c0,0.703,0.128,0.994,0.534,0.994c0.134,0,0.227-0.028,0.349-0.076l0.063,0.279
	c-0.58,0.319-1.045,0.512-1.62,0.512c-0.9,0-1.4-0.348-1.4-1.318v-3.375h-0.505v-0.453h0.553l1.242-1.174h0.784v1.174h0.831v0.453
	L77.104,55.937L77.104,55.937z"/>
<path fill="#1B181C" d="M81.015,57.552c0.256-0.023,0.337-0.052,0.337-0.447c0-0.332,0-1.371-0.44-1.371
	c-0.396,0-0.494,0.993-0.494,1.853L81.015,57.552z M80.016,54.426c-0.25-0.197-0.396-0.313-0.396-0.511
	c0-0.273,0.33-0.505,0.58-0.505c0.146,0,0.303,0.104,0.441,0.453l0.477,1.203l-0.18,0.128L80.016,54.426z M80.416,57.976
	c0.006,1.045,0.344,1.795,1.156,1.795c0.662,0,1.022-0.116,1.348-0.796l0.256,0.14c-0.383,1.203-1.289,1.516-2.334,1.516
	c-1.762,0-2.604-0.756-2.604-2.614c0-1.731,0.941-2.661,2.649-2.661c2.376,0,2.394,1.604,2.394,2.115
	c0,0.337-0.093,0.506-0.418,0.506L80.416,57.976L80.416,57.976z"/>
<path fill="#1B181C" d="M86.087,55.379l0.127,0.68c0.6-0.395,0.941-0.703,1.649-0.703c0.616,0,1.156,0.25,1.378,0.744
	c0.627-0.459,0.987-0.744,1.702-0.744c1.005,0,1.505,0.61,1.505,1.575v2.696c0,0.504,0.059,0.522,0.547,0.558v0.313h-2.992v-0.313
	c0.318-0.041,0.354-0.099,0.354-0.384v-2.794c0-0.528-0.163-0.831-0.482-0.831c-0.272,0-0.494,0.238-0.494,0.941v2.682
	c0,0.285,0.041,0.344,0.354,0.384v0.313h-2.847v-0.313c0.318-0.041,0.354-0.099,0.354-0.384v-2.794c0-0.528-0.156-0.831-0.482-0.831
	c-0.272,0-0.493,0.238-0.493,0.941v2.684c0,0.285,0.047,0.344,0.349,0.384v0.313h-2.986v-0.313c0.5-0.035,0.547-0.052,0.547-0.558
	v-3.219c0-0.273-0.047-0.378-0.203-0.407l-0.284-0.052v-0.314L86.087,55.379z"/>
<path fill="#1B181C" d="M96.19,57.552c0.256-0.023,0.337-0.052,0.337-0.447c0-0.332,0-1.371-0.453-1.371
	c-0.396,0-0.488,0.993-0.488,1.853L96.19,57.552z M95.585,57.976c0.013,1.045,0.35,1.795,1.162,1.795
	c0.65,0,1.022-0.116,1.336-0.796l0.256,0.14c-0.371,1.203-1.277,1.516-2.323,1.516c-1.767,0-2.603-0.756-2.603-2.614
	c0-1.731,0.94-2.661,2.648-2.661c2.37,0,2.395,1.604,2.395,2.115c0,0.337-0.094,0.506-0.431,0.506L95.585,57.976L95.585,57.976z"/>
<path fill="#1B181C" d="M98.992,58.568h0.336c0.325,0.791,0.987,1.69,1.674,1.69c0.336,0,0.58-0.146,0.58-0.568
	c0-0.391-0.349-0.639-1.033-0.936c-0.803-0.331-1.487-0.68-1.487-1.749c0-1.057,0.79-1.65,2.185-1.65c0.522,0,1.15,0.11,1.627,0.349
	v1.493h-0.324c-0.314-0.836-0.813-1.464-1.325-1.464c-0.325,0-0.581,0.168-0.581,0.534c0,0.343,0.291,0.564,1.197,0.93
	c0.953,0.383,1.395,0.721,1.395,1.627c0,1.15-0.813,1.807-2.242,1.807c-0.512,0-1.371-0.104-1.837-0.43L98.992,58.568z"/>
<path fill="#1B181C" d="M64.996,65.969c-0.275-0.818-0.767-1.807-1.6-1.807c-1.325,0-1.479,2.127-1.479,2.963
	c0,1.181,0.212,3.045,1.528,3.045c0.88,0,1.188-0.737,1.685-1.918h0.343l-0.156,1.842c-0.625,0.332-1.383,0.441-2.133,0.441
	c-1.258,0-2.109-0.209-2.725-0.767c-0.581-0.522-0.877-1.458-0.877-2.533c0-0.976,0.227-1.899,0.819-2.497
	c0.575-0.6,1.348-0.941,2.911-0.941c0.532,0,1.586,0.14,2.033,0.4v1.771H64.996L64.996,65.969z"/>
<path fill="#1B181C" d="M68.813,70.142c0.465,0,0.616-0.896,0.616-2.276c0-1.303-0.151-2.215-0.616-2.215
	c-0.517,0-0.609,0.993-0.609,2.215C68.198,69.17,68.297,70.142,68.813,70.142z M68.813,70.508c-2.045,0-2.788-1.053-2.788-2.627
	c0-1.592,0.743-2.643,2.788-2.643s2.789,1.051,2.789,2.643C71.603,69.458,70.858,70.508,68.813,70.508z"/>
<path fill="#1B181C" d="M74.525,65.26l0.127,0.681c0.6-0.396,0.941-0.702,1.65-0.702c0.615,0,1.156,0.249,1.377,0.743
	c0.628-0.459,0.986-0.743,1.701-0.743c1.006,0,1.506,0.615,1.506,1.574v2.695c0,0.506,0.053,0.523,0.546,0.559v0.313H78.44v-0.313
	c0.319-0.041,0.354-0.1,0.354-0.378v-2.801c0-0.528-0.168-0.831-0.481-0.831c-0.272,0-0.494,0.238-0.494,0.941v2.689
	c0,0.271,0.035,0.337,0.349,0.372v0.319h-2.84V70.06c0.318-0.035,0.354-0.101,0.354-0.372v-2.801c0-0.528-0.156-0.831-0.48-0.831
	c-0.273,0-0.494,0.237-0.494,0.94v2.69c0,0.272,0.047,0.337,0.349,0.372v0.318h-2.986v-0.318c0.5-0.029,0.546-0.047,0.546-0.553
	V66.29c0-0.271-0.046-0.377-0.203-0.412l-0.285-0.047v-0.313L74.525,65.26z"/>
<path fill="#1B181C" d="M84.233,69.411c0,0.518,0.187,0.743,0.453,0.743c0.593,0,0.649-1.202,0.649-2.167
	c0-0.789-0.058-1.93-0.645-1.93c-0.331,0-0.459,0.303-0.459,0.691L84.233,69.411L84.233,69.411z M84.048,65.26l0.162,0.744
	c0.336-0.272,0.756-0.766,1.463-0.766c1.687,0,1.836,1.77,1.836,2.422c0,1.465-0.452,2.848-2.694,2.848
	c-0.228,0-0.418-0.029-0.581-0.088v0.89c0,0.505,0.023,0.511,0.622,0.552v0.319h-3.26v-0.319c0.5-0.018,0.558-0.041,0.558-0.552
	V66.29c0-0.271-0.058-0.377-0.215-0.406l-0.273-0.053v-0.313L84.048,65.26z"/>
<path fill="#1B181C" d="M87.94,70.379v-0.313c0.511-0.035,0.569-0.053,0.569-0.559v-5.159c0-0.278-0.059-0.384-0.221-0.412
	l-0.273-0.041v-0.319l2.527-0.215l0.041,0.041v6.105c0,0.506,0.058,0.523,0.563,0.559v0.313H87.94z"/>
<path fill="#1B181C" d="M94.332,67.434c0.256-0.021,0.336-0.053,0.336-0.447c0-0.33,0-1.371-0.44-1.371c-0.396,0-0.5,1-0.5,1.854
	L94.332,67.434z M93.727,67.859c0.012,1.046,0.349,1.795,1.162,1.795c0.661,0,1.022-0.116,1.349-0.796l0.256,0.141
	c-0.384,1.201-1.289,1.51-2.336,1.51c-1.767,0-2.604-0.75-2.604-2.608c0-1.731,0.941-2.659,2.648-2.659
	c2.371,0,2.395,1.604,2.395,2.113c0,0.337-0.094,0.506-0.43,0.506L93.727,67.859L93.727,67.859z"/>
<path fill="#1B181C" d="M99.781,65.686l-0.256,0.027c-0.128,0.019-0.141,0.07-0.059,0.228l0.465,0.901h0.035
	c0.186-0.309,0.337-0.6,0.488-0.901c0.08-0.149,0.068-0.19-0.07-0.209l-0.396-0.046v-0.32h1.894v0.32
	c-0.383-0.012-0.51,0.087-0.696,0.271c-0.313,0.31-0.604,0.617-1.058,1.209c0.453,0.772,0.918,1.783,1.418,2.521
	c0.187,0.277,0.303,0.337,0.65,0.378v0.313h-3.394v-0.313l0.291-0.041c0.149-0.022,0.186-0.122,0.116-0.25l-0.582-1.114h-0.022
	c-0.116,0.196-0.313,0.621-0.593,1.127c-0.069,0.139,0,0.227,0.128,0.237l0.384,0.041v0.313h-1.952v-0.313
	c0.431-0.034,0.558-0.101,0.755-0.338c0.418-0.499,0.687-0.83,1.104-1.423c-0.406-0.668-0.824-1.662-1.255-2.318
	c-0.174-0.238-0.232-0.273-0.604-0.302v-0.319h3.207L99.781,65.686L99.781,65.686z"/>
<path fill="#1B181C" d="M104.835,67.434c0.256-0.021,0.338-0.053,0.338-0.447c0-0.33,0-1.371-0.441-1.371c-0.396,0-0.5,1-0.5,1.854
	L104.835,67.434z M104.231,67.859c0.013,1.046,0.349,1.795,1.162,1.795c0.662,0,1.022-0.116,1.336-0.796l0.269,0.141
	c-0.385,1.201-1.291,1.51-2.336,1.51c-1.767,0-2.604-0.75-2.604-2.608c0-1.731,0.941-2.659,2.648-2.659
	c2.371,0,2.395,1.604,2.395,2.113c0,0.337-0.094,0.506-0.43,0.506L104.231,67.859L104.231,67.859z"/>
<path fill="#1B181C" d="M107.66,68.452h0.324c0.325,0.797,0.988,1.69,1.674,1.69c0.338,0,0.581-0.146,0.581-0.569
	c0-0.39-0.349-0.64-1.034-0.936c-0.802-0.331-1.486-0.68-1.486-1.749c0-1.058,0.789-1.649,2.185-1.649c0.522,0,1.15,0.11,1.626,0.35
	v1.492h-0.324c-0.303-0.836-0.813-1.465-1.313-1.465c-0.325,0-0.581,0.17-0.581,0.529c0,0.35,0.277,0.568,1.195,0.936
	c0.941,0.383,1.384,0.721,1.384,1.627c0,1.149-0.813,1.801-2.242,1.801c-0.513,0-1.371-0.098-1.836-0.424L107.66,68.452z"/>
<path fill="#1B181C" d="M84.152,45.949c-0.128,0.064-0.337,0.151-0.5,0.244c-0.197,0.087-0.268,0.221-0.268,0.47
	c0,0.308,0.15,0.581,0.419,0.581c0.128,0,0.349-0.081,0.349-0.383V45.949z M84.82,46.867c0,0.308,0.059,0.377,0.146,0.413
	c0.058,0.022,0.133,0.022,0.197,0.017v0.076c-0.164,0.093-0.35,0.151-0.61,0.151c-0.257,0-0.354-0.146-0.39-0.337
	c-0.187,0.116-0.418,0.337-0.744,0.337c-0.517,0-0.742-0.366-0.742-0.75c0-0.285,0.109-0.494,0.521-0.61
	c0.372-0.099,0.825-0.227,0.953-0.36v-0.319c0-0.337-0.15-0.5-0.365-0.5c-0.216,0-0.379,0.139-0.472,0.627
	c-0.028,0.116-0.093,0.163-0.209,0.163s-0.349-0.082-0.349-0.296c0-0.279,0.384-0.616,1.092-0.616c0.884,0,0.977,0.424,0.977,0.744
	v1.261L84.82,46.867L84.82,46.867z"/>
<path fill="#1B181C" d="M86.371,47.065c0,0.227,0.023,0.244,0.432,0.267v0.128H85.36v-0.128c0.304-0.018,0.319-0.041,0.319-0.267
	v-1.662c0-0.197-0.04-0.25-0.133-0.261l-0.164-0.023v-0.104l0.906-0.145l0.069,0.494c0.313-0.343,0.465-0.5,0.681-0.5
	c0.221,0,0.344,0.134,0.344,0.331c0,0.186-0.141,0.407-0.344,0.407c-0.082,0-0.14-0.035-0.191-0.082
	c-0.104-0.099-0.174-0.151-0.271-0.151c-0.129,0-0.205,0.122-0.205,0.418V47.065L86.371,47.065z"/>
<path fill="#1B181C" d="M88.225,43.823c0.228,0,0.354,0.168,0.354,0.354c0,0.197-0.141,0.366-0.36,0.366
	c-0.228,0-0.36-0.168-0.36-0.366c0-0.186,0.135-0.354,0.36-0.354H88.225z M87.882,45.409c0-0.209-0.034-0.244-0.141-0.261
	l-0.15-0.029v-0.104l0.959-0.145l0.029,0.017v2.179c0,0.238,0.018,0.25,0.313,0.273v0.122h-1.324v-0.122
	c0.285-0.018,0.313-0.035,0.313-0.273v-1.657H87.882z"/>
<path fill="#1B181C" d="M90.798,45.711c-0.092-0.401-0.359-0.72-0.639-0.72c-0.244,0-0.371,0.151-0.371,0.377
	c0,0.267,0.231,0.383,0.545,0.5c0.465,0.18,0.744,0.366,0.744,0.813c0,0.535-0.418,0.843-1.018,0.843
	c-0.284,0-0.621-0.076-0.784-0.215l-0.069-0.767h0.116c0.128,0.424,0.419,0.854,0.767,0.854c0.228,0,0.406-0.116,0.406-0.39
	c0-0.255-0.186-0.395-0.533-0.528c-0.441-0.18-0.721-0.401-0.721-0.802c0-0.506,0.359-0.813,0.94-0.813
	c0.256,0,0.522,0.052,0.721,0.168v0.68H90.798z"/>
<path fill="#1B181C" d="M80.562,51.411c0,0.267,0.035,0.296,0.406,0.313v0.128h-1.551v-0.128c0.383-0.017,0.399-0.035,0.399-0.313
	v-2.742c0-0.273-0.017-0.302-0.399-0.32v-0.122h1.551v0.122c-0.365,0.018-0.406,0.035-0.406,0.32V51.411z"/>
<path fill="#1B181C" d="M81.479,48.401c0-0.203-0.035-0.255-0.128-0.273l-0.186-0.029v-0.111l0.998-0.099l0.012,0.012v3.567
	c0,0.227,0.019,0.238,0.32,0.255v0.128h-1.343v-0.128c0.302-0.017,0.325-0.029,0.325-0.255L81.479,48.401L81.479,48.401z"/>
<path fill="#1B181C" d="M84.222,50.359c0.134,0,0.175-0.052,0.175-0.197c0-0.332-0.06-0.779-0.413-0.779
	c-0.378,0-0.459,0.593-0.459,0.976H84.222z M83.524,50.493c-0.006,0.593,0.163,1.115,0.697,1.115c0.384,0,0.593-0.168,0.761-0.534
	l0.094,0.046c-0.162,0.459-0.471,0.796-1.074,0.796c-0.931,0-1.209-0.593-1.209-1.331c0-0.726,0.326-1.336,1.221-1.336
	c0.986,0,1.086,0.691,1.086,1.051c0,0.146-0.075,0.192-0.262,0.192L83.524,50.493L83.524,50.493z"/>
<path fill="#1B181C" d="M88.283,49.912c0-0.122,0-0.221-0.041-0.308c-0.063-0.122-0.197-0.221-0.406-0.221
	c-0.365,0-0.604,0.337-0.604,1.162c0,0.639,0.238,1.092,0.616,1.092c0.18,0,0.302-0.058,0.364-0.18
	c0.06-0.082,0.07-0.192,0.07-0.302V49.912z M88.149,48.122l-0.215-0.029v-0.11l1.028-0.093v0.012v3.556
	c0,0.232,0.035,0.25,0.349,0.267v0.128h-1.028v-0.285c-0.285,0.221-0.568,0.349-0.783,0.349c-0.629,0-0.994-0.43-0.994-1.278
	c0-0.465,0.146-0.831,0.377-1.057c0.232-0.215,0.535-0.331,0.918-0.331c0.187,0,0.361,0.029,0.482,0.087v-0.941
	C88.283,48.18,88.236,48.134,88.149,48.122z"/>
<path fill="#1B181C" d="M91.02,50.359c0.134,0,0.174-0.052,0.174-0.197c0-0.332-0.058-0.779-0.411-0.779
	c-0.379,0-0.46,0.593-0.46,0.976H91.02z M90.322,50.493c-0.012,0.593,0.163,1.115,0.697,1.115c0.384,0,0.593-0.168,0.761-0.534
	l0.089,0.046c-0.164,0.459-0.466,0.796-1.07,0.796c-0.93,0-1.209-0.593-1.209-1.331c0-0.726,0.326-1.336,1.228-1.336
	c0.981,0,1.074,0.691,1.074,1.051c0,0.146-0.069,0.192-0.255,0.192L90.322,50.493L90.322,50.493z"/>
<path fill="#1B181C" d="M95.923,48.227v0.947h-0.129c-0.162-0.593-0.301-0.79-0.858-0.79h-0.36c-0.15,0-0.186,0.029-0.186,0.191v1.4
	h0.65c0.359,0,0.43-0.151,0.51-0.523h0.117v1.203H95.55c-0.08-0.372-0.149-0.523-0.51-0.523h-0.65v1.278
	c0,0.279,0.033,0.296,0.486,0.313v0.128h-1.638v-0.128c0.36-0.017,0.406-0.035,0.406-0.313v-2.742c0-0.285-0.013-0.302-0.406-0.32
	v-0.122L95.923,48.227L95.923,48.227z"/>
<path fill="#1B181C" d="M97.271,51.457c0,0.227,0.012,0.244,0.418,0.267v0.128h-1.441v-0.128c0.303-0.017,0.326-0.041,0.326-0.267
	v-1.662c0-0.198-0.047-0.25-0.128-0.262l-0.163-0.023v-0.104l0.906-0.146l0.059,0.488c0.325-0.337,0.478-0.5,0.687-0.5
	c0.221,0,0.349,0.145,0.349,0.337c0,0.186-0.14,0.407-0.349,0.407c-0.082,0-0.14-0.035-0.187-0.082
	c-0.117-0.099-0.187-0.151-0.278-0.151c-0.128,0-0.197,0.122-0.197,0.418L97.271,51.457L97.271,51.457z"/>
<path fill="#1B181C" d="M99.943,50.341c-0.128,0.064-0.337,0.151-0.499,0.244c-0.198,0.087-0.269,0.221-0.269,0.471
	c0,0.308,0.152,0.581,0.419,0.581c0.128,0,0.349-0.082,0.349-0.383V50.341z M100.617,51.259c0,0.308,0.059,0.378,0.141,0.413
	c0.059,0.023,0.127,0.023,0.197,0.018v0.076c-0.15,0.093-0.35,0.151-0.615,0.151c-0.256,0-0.35-0.145-0.396-0.337
	c-0.174,0.116-0.406,0.337-0.73,0.337c-0.512,0-0.744-0.36-0.744-0.755c0-0.273,0.115-0.488,0.523-0.604
	c0.37-0.099,0.823-0.227,0.951-0.36v-0.319c0-0.337-0.15-0.5-0.359-0.5c-0.222,0-0.383,0.14-0.477,0.627
	c-0.023,0.116-0.094,0.163-0.197,0.163c-0.129,0-0.361-0.082-0.361-0.291c0-0.285,0.385-0.622,1.094-0.622
	c0.883,0,0.977,0.424,0.977,0.75v1.253H100.617z"/>
<path fill="#1B181C" d="M103.802,51.475c0,0.232,0.021,0.232,0.324,0.25v0.128h-1.313v-0.128c0.221-0.017,0.303-0.006,0.303-0.238
	v-1.441c0-0.337-0.15-0.512-0.441-0.512c-0.221,0-0.396,0.128-0.465,0.262c-0.022,0.07-0.047,0.186-0.047,0.302v1.389
	c0,0.232,0.082,0.221,0.291,0.238v0.128h-1.302v-0.128c0.302-0.017,0.313-0.035,0.313-0.273v-1.644c0-0.215-0.023-0.262-0.129-0.268
	l-0.162-0.029v-0.104l0.919-0.146l0.069,0.366c0.336-0.204,0.568-0.377,0.883-0.377c0.522,0,0.756,0.325,0.756,0.813V51.475z"/>
<path fill="#1B181C" d="M106.695,51.108c-0.162,0.587-0.615,0.802-1.093,0.802c-0.744,0-1.174-0.441-1.174-1.301
	c0-0.802,0.419-1.359,1.278-1.359c0.5,0,0.94,0.227,0.94,0.558c0,0.221-0.222,0.308-0.384,0.308c-0.129,0-0.209-0.052-0.232-0.168
	c-0.058-0.349-0.14-0.563-0.395-0.563c-0.268,0-0.488,0.372-0.488,1.086c0,0.755,0.303,1.139,0.697,1.139
	c0.289,0,0.58-0.104,0.767-0.54L106.695,51.108z"/>
<path fill="#1B181C" d="M108.438,50.359c0.128,0,0.175-0.052,0.175-0.197c0-0.332-0.059-0.779-0.419-0.779
	c-0.37,0-0.452,0.593-0.452,0.976H108.438z M107.74,50.493c-0.012,0.593,0.163,1.115,0.697,1.115c0.384,0,0.593-0.168,0.756-0.534
	l0.094,0.046c-0.164,0.459-0.466,0.796-1.07,0.796c-0.93,0-1.207-0.593-1.207-1.331c0-0.726,0.324-1.336,1.22-1.336
	c0.987,0,1.081,0.691,1.081,1.051c0,0.146-0.082,0.192-0.256,0.192L107.74,50.493L107.74,50.493z"/>
<path fill="#1B181C" d="M80.887,45.885c-0.209,0-0.331-0.041-0.331-0.232V44.16c0-0.151,0.018-0.192,0.296-0.192
	c0.396,0,0.696,0.302,0.696,0.936C81.548,45.45,81.416,45.885,80.887,45.885z M81.91,44.02c-0.244-0.151-0.535-0.186-0.941-0.186
	h-1.557v0.122c0.383,0.017,0.405,0.035,0.405,0.313v2.748c0,0.035,0,0.07,0,0.099l0.304-0.343h0.121l0.319,0.343
	c-0.006-0.029-0.006-0.058-0.006-0.099v-1.022c0.075,0.012,0.202,0.023,0.319,0.023c0.43,0,0.731-0.07,0.959-0.221
	c0.295-0.169,0.481-0.459,0.481-0.913C82.316,44.474,82.177,44.183,81.91,44.02z"/>
<path fill="#1B181C" d="M80.887,47.93l-0.64-0.343c-0.047-0.035-0.093-0.041-0.146,0l-0.616,0.343l-0.063-0.081l0.697-0.761h0.127
	l0.709,0.761L80.887,47.93z"/>
</svg>
