<?xml version="1.0" encoding="utf-8"?>
<!-- Generator: Adobe Illustrator 15.0.2, SVG Export Plug-In . SVG Version: 6.00 Build 0)  -->
<!DOCTYPE svg PUBLIC "-//W3C//DTD SVG 1.1//EN" "http://www.w3.org/Graphics/SVG/1.1/DTD/svg11.dtd" [
	<!ENTITY ns_extend "http://ns.adobe.com/Extensibility/1.0/">
	<!ENTITY ns_ai "http://ns.adobe.com/AdobeIllustrator/10.0/">
	<!ENTITY ns_graphs "http://ns.adobe.com/Graphs/1.0/">
	<!ENTITY ns_vars "http://ns.adobe.com/Variables/1.0/">
	<!ENTITY ns_imrep "http://ns.adobe.com/ImageReplacement/1.0/">
	<!ENTITY ns_sfw "http://ns.adobe.com/SaveForWeb/1.0/">
	<!ENTITY ns_custom "http://ns.adobe.com/GenericCustomNamespace/1.0/">
	<!ENTITY ns_adobe_xpath "http://ns.adobe.com/XPath/1.0/">
]>
<svg version="1.1"
	 id="Calque_1" xmlns:x="&ns_extend;" xmlns:i="&ns_ai;" xmlns:graph="&ns_graphs;" xmlns:dc="http://purl.org/dc/elements/1.1/" xmlns:rdf="http://www.w3.org/1999/02/22-rdf-syntax-ns#" xmlns:cc="http://creativecommons.org/ns#" xmlns:svg="http://www.w3.org/2000/svg"
	 xmlns="http://www.w3.org/2000/svg" xmlns:xlink="http://www.w3.org/1999/xlink" x="0px" y="0px" width="1699.93px"
	 height="760.318px" viewBox="0 0 1699.93 760.318" enable-background="new 0 0 1699.93 760.318" xml:space="preserve">
<metadata  id="metadata133">
	<rdf:RDF>
		<cc:Work  rdf:about="">
			<dc:format>image/svg+xml</dc:format>
			<dc:type  rdf:resource="http://purl.org/dc/dcmitype/StillImage"></dc:type>
			<dc:title></dc:title>
		</cc:Work>
	</rdf:RDF>
	<sfw  xmlns="&ns_sfw;">
		<slices></slices>
		<sliceSourceBounds  height="641.458" width="1494.491" x="-504.695" y="98.02" bottomLeftOrigin="true"></sliceSourceBounds>
	</sfw>
</metadata>
<g id="g4285" transform="matrix(0.94802788,0,0,0.94802788,-32.246708,27.877969)">
	<polygon id="polygon3" fill="#FFB700" points="1660.824,95.133 1182.292,40.413 907.718,114.043 907.718,482.824 1182.292,708.075 
		1660.824,538.653 	"/>
	<g id="g25" transform="matrix(5.5062918,0,0,5.5062918,945.84561,55.159097)">
		<g id="g27">
			<path id="path29" fill="#1A171B" d="M46.94,29.582c0,0.706,0.057,0.792,0.878,0.821v0.461H42.82v-0.461
				c0.806-0.029,0.878-0.116,0.878-0.821v-6.798c0-0.706-0.072-0.807-0.878-0.836v-0.446h4.998v0.446
				c-0.821,0.029-0.878,0.13-0.878,0.836V29.582z"/>
			<path id="path31" fill="#1A171B" d="M51.863,23.402l0.187,0.98c0.836-0.562,1.283-1.009,2.29-1.009
				c1.526,0,2.247,0.894,2.247,2.29v3.933c0,0.734,0.086,0.763,0.806,0.806v0.461h-4.364v-0.461
				c0.461-0.058,0.518-0.144,0.518-0.548v-4.004c0-0.966-0.274-1.282-0.677-1.282c-0.461,0-0.751,0.346-0.751,1.368v3.731
				c0,0.403,0.072,0.677,0.519,0.734v0.461h-4.364v-0.461c0.734-0.043,0.806,0.043,0.806-0.691V24.9c0-0.389-0.073-0.548-0.303-0.59
				l-0.418-0.072v-0.461L51.863,23.402z"/>
			<path id="path33" fill="#1A171B" d="M57.997,28.056h0.49c0.461,1.152,1.441,2.463,2.434,2.463c0.489,0,0.85-0.217,0.85-0.836
				c0-0.562-0.518-0.922-1.513-1.354c-1.167-0.49-2.161-0.994-2.161-2.55c0-1.542,1.151-2.406,3.169-2.406
				c0.764,0,1.686,0.158,2.377,0.505v2.175h-0.475c-0.447-1.21-1.182-2.132-1.916-2.132c-0.475,0-0.85,0.246-0.85,0.778
				c0,0.504,0.417,0.821,1.742,1.354c1.383,0.562,2.031,1.051,2.031,2.377c0,1.671-1.195,2.622-3.284,2.622
				c-0.734,0-1.987-0.145-2.664-0.619L57.997,28.056z"/>
			<path id="path35" fill="#1A171B" d="M68.351,24.224v4.35c0,1.023,0.187,1.441,0.778,1.441c0.202,0,0.331-0.043,0.505-0.101
				l0.1,0.403c-0.849,0.461-1.526,0.735-2.361,0.735c-1.311,0-2.046-0.505-2.046-1.916v-4.913h-0.736v-0.662H65.4l1.8-1.714h1.151
				v1.714h1.211v0.662H68.351z"/>
			<path id="path37" fill="#1A171B" d="M73.737,23.402l0.058,0.044v6.15c0,0.734,0.072,0.763,0.806,0.806v0.461h-4.723v-0.461
				c0.734-0.043,0.806-0.072,0.806-0.806V24.9c0-0.389-0.072-0.548-0.303-0.59l-0.417-0.072v-0.461L73.737,23.402z M70.784,21.962
				c0-0.678,0.549-1.196,1.413-1.196c0.879,0,1.425,0.518,1.425,1.196c0,0.677-0.547,1.195-1.425,1.195
				C71.332,23.158,70.784,22.639,70.784,21.962z"/>
			<path id="path39" fill="#1A171B" d="M78.706,24.224v4.35c0,1.023,0.187,1.441,0.778,1.441c0.202,0,0.331-0.043,0.503-0.101
				l0.102,0.403c-0.85,0.461-1.526,0.735-2.362,0.735c-1.311,0-2.045-0.505-2.045-1.916v-4.913h-0.734v-0.662h0.806l1.8-1.714h1.153
				v1.714h1.21v0.662H78.706z"/>
			<path id="path41" fill="#1A171B" d="M85.316,29.942c-0.246,0.173-1.066,1.11-2.161,1.11c-1.483,0-2.39-0.577-2.39-2.29v-3.99
				c0-0.389-0.086-0.562-0.317-0.59l-0.403-0.072v-0.461l3.659-0.173l0.085,0.057v5.099c0,0.821,0.302,1.239,0.677,1.239
				c0.418,0,0.734-0.202,0.734-1.614v-3.486c0-0.389-0.086-0.562-0.316-0.59l-0.405-0.072v-0.461l3.659-0.173l0.1,0.057v6.065
				c0,0.734,0.074,0.763,0.808,0.806v0.461h-3.516L85.316,29.942z"/>
			<path id="path43" fill="#1A171B" d="M93.234,24.224v4.35c0,1.023,0.187,1.441,0.778,1.441c0.202,0,0.331-0.043,0.505-0.101
				l0.1,0.403c-0.849,0.461-1.526,0.735-2.361,0.735c-1.311,0-2.046-0.505-2.046-1.916v-4.913h-0.736v-0.662h0.808l1.8-1.714h1.151
				v1.714h1.211v0.662H93.234z"/>
		</g>
		<g id="g45">
			<path id="path47" fill="#1A171B" d="M50.728,43.996c0,0.734,0.072,0.763,0.806,0.806v0.461h-3.571l-0.13-0.691
				c-0.792,0.59-1.426,0.879-2.103,0.879c-1.786,0-2.78-1.311-2.78-3.788c0-2.895,1.671-3.89,3.803-3.89
				c0.418,0,0.763,0.058,0.936,0.116v-1.412c0-0.403-0.072-0.562-0.303-0.605l-0.418-0.058v-0.461l3.715-0.317l0.044,0.029
				L50.728,43.996L50.728,43.996z M47.675,39.344c0-0.994-0.433-1.008-0.663-1.008c-0.446,0-0.893,0.835-0.893,3.039
				c0,2.262,0.533,2.996,1.051,2.996c0.374,0,0.518-0.374,0.518-0.734L47.675,39.344z"/>
			<path id="path49" fill="#1A171B" d="M55.32,41.591c0.014,1.527,0.505,2.622,1.686,2.622c0.964,0,1.497-0.173,1.958-1.166
				l0.375,0.202c-0.547,1.757-1.872,2.204-3.398,2.204c-2.564,0-3.789-1.095-3.789-3.803c0-2.52,1.369-3.875,3.861-3.875
				c3.456,0,3.486,2.334,3.486,3.083c0,0.49-0.13,0.734-0.62,0.734H55.32z M56.198,40.972c0.375-0.029,0.491-0.073,0.491-0.649
				c0-0.49,0-2.002-0.649-2.002c-0.577,0-0.72,1.454-0.72,2.708L56.198,40.972z"/>
			<path id="path51" fill="#1A171B" d="M60.301,42.456h0.49c0.461,1.152,1.439,2.463,2.434,2.463c0.489,0,0.849-0.217,0.849-0.836
				c0-0.562-0.517-0.922-1.513-1.354c-1.165-0.49-2.159-0.994-2.159-2.55c0-1.542,1.151-2.406,3.169-2.406
				c0.762,0,1.684,0.158,2.377,0.505v2.175h-0.475c-0.447-1.21-1.182-2.132-1.916-2.132c-0.477,0-0.85,0.246-0.85,0.778
				c0,0.504,0.417,0.821,1.742,1.354c1.383,0.562,2.031,1.051,2.031,2.377c0,1.671-1.195,2.622-3.284,2.622
				c-0.734,0-1.987-0.145-2.664-0.619L60.301,42.456L60.301,42.456z"/>
		</g>
		<g id="g53">
			<path id="path55" fill="#1A171B" d="M48.769,53.211c-0.677-1.801-1.325-2.607-2.262-2.607c-0.59,0-1.196,0.245-1.196,1.166
				c0,0.75,0.792,1.34,1.786,1.758c2.133,0.922,2.867,1.483,2.867,3.226c0,1.67-1.023,3.139-3.918,3.139
				c-0.894,0-2.218-0.244-3.039-0.792l-0.202-2.794h0.533c0.85,1.858,1.599,3.026,2.809,3.026c0.72,0,1.166-0.403,1.166-1.139
				c0-0.561-0.129-1.167-1.585-1.8c-2.391-1.022-2.895-1.858-2.895-3.342c0-1.873,1.325-2.982,3.63-2.982
				c1.051,0,2.06,0.202,2.852,0.533v2.607h-0.546V53.211z"/>
			<path id="path57" fill="#1A171B" d="M57.986,52.822c-0.518,0-0.634,0.072-0.85,0.548c-0.433,0.922-1.397,3.687-2.203,5.862
				c-0.692,1.858-1.182,3.227-2.551,3.227c-0.764,0-1.311-0.417-1.311-1.022c0-0.62,0.518-1.182,1.08-1.182
				c0.317,0,0.403,0.114,0.605,0.317c0.203,0.202,0.389,0.374,0.62,0.374c0.359,0,0.533-0.374,0.346-0.806
				c-0.778-1.714-2.434-5.416-3.025-6.655c-0.23-0.475-0.302-0.605-0.864-0.662v-0.461h4.797v0.461l-0.475,0.058
				c-0.274,0.029-0.289,0.202-0.173,0.518c0.361,1.051,0.864,2.175,1.297,3.241h0.058c0.359-1.253,0.749-2.722,0.864-3.298
				c0.058-0.302,0.014-0.432-0.231-0.461l-0.518-0.058v-0.461h2.536V52.822L57.986,52.822z"/>
			<path id="path59" fill="#1A171B" d="M58.055,56.856h0.49c0.461,1.153,1.441,2.464,2.434,2.464c0.489,0,0.85-0.217,0.85-0.836
				c0-0.562-0.518-0.922-1.513-1.354c-1.167-0.49-2.161-0.994-2.161-2.549c0-1.542,1.151-2.406,3.169-2.406
				c0.764,0,1.686,0.158,2.377,0.505v2.175h-0.475c-0.447-1.21-1.182-2.132-1.916-2.132c-0.475,0-0.85,0.246-0.85,0.778
				c0,0.504,0.417,0.821,1.742,1.354c1.383,0.562,2.031,1.051,2.031,2.377c0,1.67-1.195,2.622-3.284,2.622
				c-0.734,0-1.987-0.146-2.664-0.62L58.055,56.856z"/>
			<path id="path61" fill="#1A171B" d="M68.409,53.024v4.35c0,1.023,0.187,1.441,0.778,1.441c0.201,0,0.331-0.044,0.505-0.102
				l0.1,0.403c-0.849,0.461-1.526,0.736-2.361,0.736c-1.311,0-2.045-0.505-2.045-1.916v-4.913H64.65v-0.662h0.808l1.8-1.714h1.151
				v1.714h1.211v0.662H68.409L68.409,53.024z"/>
			<path id="path63" fill="#1A171B" d="M73.234,55.991c0.015,1.527,0.503,2.622,1.684,2.622c0.966,0,1.498-0.174,1.959-1.167
				l0.375,0.202c-0.549,1.758-1.874,2.205-3.4,2.205c-2.564,0-3.789-1.095-3.789-3.803c0-2.52,1.369-3.875,3.861-3.875
				c3.458,0,3.486,2.334,3.486,3.083c0,0.49-0.13,0.734-0.618,0.734L73.234,55.991L73.234,55.991z M72.644,50.82
				c-0.361-0.287-0.563-0.461-0.563-0.749c0-0.389,0.475-0.735,0.836-0.735c0.216,0,0.447,0.158,0.649,0.662l0.69,1.758
				l-0.259,0.187L72.644,50.82L72.644,50.82z M74.112,55.372c0.375-0.029,0.489-0.073,0.489-0.649c0-0.49,0-2.002-0.647-2.002
				c-0.577,0-0.72,1.454-0.72,2.708L74.112,55.372L74.112,55.372z"/>
			<path id="path65" fill="#1A171B" d="M81.5,52.202l0.187,0.994c0.864-0.577,1.367-1.023,2.405-1.023
				c0.893,0,1.686,0.36,2.003,1.081c0.906-0.662,1.439-1.081,2.477-1.081c1.469,0,2.189,0.894,2.189,2.29v3.934
				c0,0.734,0.087,0.762,0.808,0.806v0.461h-4.366v-0.461c0.461-0.058,0.518-0.144,0.518-0.549V54.58c0-0.778-0.244-1.21-0.705-1.21
				c-0.405,0-0.72,0.346-0.72,1.368v3.918c0,0.405,0.056,0.49,0.517,0.549v0.461h-4.149v-0.461c0.461-0.058,0.518-0.144,0.518-0.549
				V54.58c0-0.778-0.23-1.21-0.705-1.21c-0.403,0-0.72,0.346-0.72,1.368v3.918c0,0.405,0.072,0.49,0.518,0.549v0.461h-4.366v-0.461
				c0.734-0.044,0.808-0.072,0.808-0.806V53.7c0-0.389-0.074-0.548-0.303-0.59l-0.417-0.072v-0.461L81.5,52.202L81.5,52.202z"/>
			<path id="path67" fill="#1A171B" d="M95.337,55.991c0.014,1.527,0.505,2.622,1.686,2.622c0.964,0,1.497-0.174,1.958-1.167
				l0.375,0.202c-0.547,1.758-1.872,2.205-3.398,2.205c-2.564,0-3.789-1.095-3.789-3.803c0-2.52,1.369-3.875,3.861-3.875
				c3.456,0,3.486,2.334,3.486,3.083c0,0.49-0.13,0.734-0.62,0.734L95.337,55.991L95.337,55.991z M96.215,55.372
				c0.375-0.029,0.491-0.073,0.491-0.649c0-0.49,0-2.002-0.649-2.002c-0.577,0-0.72,1.454-0.72,2.708L96.215,55.372L96.215,55.372z"
				/>
			<path id="path69" fill="#1A171B" d="M100.304,56.856h0.489c0.461,1.153,1.441,2.464,2.434,2.464c0.491,0,0.85-0.217,0.85-0.836
				c0-0.562-0.518-0.922-1.513-1.354c-1.165-0.49-2.161-0.994-2.161-2.549c0-1.542,1.153-2.406,3.17-2.406
				c0.762,0,1.684,0.158,2.377,0.505v2.175h-0.477c-0.446-1.21-1.182-2.132-1.916-2.132c-0.475,0-0.85,0.246-0.85,0.778
				c0,0.504,0.418,0.821,1.744,1.354c1.383,0.562,2.031,1.051,2.031,2.377c0,1.67-1.195,2.622-3.284,2.622
				c-0.734,0-1.987-0.146-2.665-0.62L100.304,56.856L100.304,56.856z"/>
		</g>
		<g id="g71">
			<path id="path73" fill="#1A171B" d="M50.772,67.64c-0.403-1.195-1.123-2.636-2.334-2.636c-1.93,0-2.161,3.097-2.161,4.321
				c0,1.715,0.317,4.436,2.233,4.436c1.282,0,1.729-1.08,2.45-2.794h0.503l-0.23,2.678c-0.908,0.49-2.017,0.649-3.111,0.649
				c-1.83,0-3.068-0.302-3.962-1.123c-0.85-0.762-1.282-2.117-1.282-3.687c0-1.425,0.331-2.766,1.196-3.644
				c0.835-0.865,1.959-1.369,4.234-1.369c0.778,0,2.319,0.202,2.966,0.59v2.578L50.772,67.64L50.772,67.64z"/>
			<path id="path75" fill="#1A171B" d="M56.328,74.252c-2.981,0-4.061-1.528-4.061-3.833c0-2.318,1.08-3.846,4.061-3.846
				c2.983,0,4.062,1.526,4.062,3.846C60.391,72.724,59.311,74.252,56.328,74.252z M56.328,73.719c0.679,0,0.894-1.311,0.894-3.314
				c0-1.902-0.216-3.226-0.894-3.226c-0.749,0-0.892,1.441-0.892,3.226C55.436,72.307,55.58,73.719,56.328,73.719z"/>
			<path id="path77" fill="#1A171B" d="M64.651,66.602l0.187,0.995c0.864-0.577,1.369-1.023,2.405-1.023
				c0.894,0,1.686,0.359,2.003,1.08c0.908-0.662,1.441-1.08,2.477-1.08c1.47,0,2.19,0.894,2.19,2.29v3.933
				c0,0.734,0.086,0.762,0.806,0.806v0.461h-4.364v-0.461c0.461-0.058,0.519-0.144,0.519-0.549V68.98
				c0-0.778-0.246-1.211-0.706-1.211c-0.403,0-0.72,0.346-0.72,1.369v3.917c0,0.405,0.058,0.491,0.518,0.549v0.461h-4.149v-0.461
				c0.461-0.058,0.518-0.144,0.518-0.549v-4.075c0-0.778-0.231-1.211-0.706-1.211c-0.403,0-0.72,0.346-0.72,1.369v3.917
				c0,0.405,0.072,0.491,0.518,0.549v0.461h-4.364v-0.461c0.734-0.044,0.806-0.072,0.806-0.806v-4.697
				c0-0.389-0.072-0.547-0.303-0.59l-0.417-0.072v-0.461L64.651,66.602z"/>
			<path id="path79" fill="#1A171B" d="M78.532,66.602l0.23,1.081c0.49-0.389,1.095-1.11,2.133-1.11c2.462,0,2.68,2.578,2.68,3.53
				c0,2.131-0.664,4.149-3.933,4.149c-0.331,0-0.605-0.044-0.85-0.129v1.295c0,0.734,0.044,0.75,0.908,0.808v0.461h-4.753v-0.461
				c0.734-0.03,0.82-0.058,0.82-0.808v-7.317c0-0.389-0.086-0.547-0.317-0.59l-0.403-0.072v-0.461L78.532,66.602L78.532,66.602z
				 M78.792,72.652c0,0.751,0.274,1.082,0.662,1.082c0.864,0,0.951-1.758,0.951-3.154c0-1.153-0.086-2.81-0.936-2.81
				c-0.489,0-0.677,0.433-0.677,1.008V72.652L78.792,72.652z"/>
			<path id="path81" fill="#1A171B" d="M84.204,74.064v-0.461c0.734-0.044,0.822-0.072,0.822-0.806v-7.52
				c0-0.402-0.087-0.562-0.317-0.604l-0.403-0.058v-0.462l3.687-0.317l0.058,0.057v8.903c0,0.734,0.086,0.762,0.82,0.806v0.461
				L84.204,74.064L84.204,74.064z"/>
			<path id="path83" fill="#1A171B" d="M92.63,70.391c0.016,1.527,0.505,2.622,1.686,2.622c0.966,0,1.498-0.174,1.959-1.167
				l0.374,0.201c-0.547,1.758-1.872,2.205-3.398,2.205c-2.564,0-3.789-1.095-3.789-3.803c0-2.52,1.369-3.875,3.861-3.875
				c3.456,0,3.486,2.333,3.486,3.083c0,0.489-0.13,0.734-0.62,0.734H92.63z M93.509,69.772c0.374-0.03,0.489-0.074,0.489-0.649
				c0-0.491,0-2.003-0.649-2.003c-0.575,0-0.72,1.454-0.72,2.708L93.509,69.772L93.509,69.772z"/>
			<path id="path85" fill="#1A171B" d="M101.442,67.222l-0.374,0.044c-0.187,0.028-0.201,0.1-0.087,0.331l0.679,1.31h0.058
				c0.274-0.446,0.489-0.864,0.72-1.31c0.114-0.217,0.1-0.275-0.116-0.303l-0.577-0.072v-0.461h2.766v0.461
				c-0.561-0.014-0.749,0.13-1.022,0.403c-0.447,0.447-0.865,0.894-1.528,1.758c0.662,1.123,1.325,2.592,2.061,3.672
				c0.274,0.405,0.446,0.49,0.951,0.549v0.461h-4.941v-0.461l0.417-0.058c0.217-0.03,0.275-0.174,0.174-0.361l-0.85-1.626h-0.028
				c-0.174,0.287-0.461,0.906-0.864,1.642c-0.102,0.202,0,0.331,0.186,0.346l0.549,0.057v0.461h-2.838v-0.461
				c0.618-0.044,0.82-0.144,1.108-0.49c0.606-0.72,0.995-1.21,1.6-2.074c-0.59-0.966-1.195-2.42-1.83-3.37
				c-0.246-0.347-0.346-0.403-0.879-0.447v-0.461h4.666V67.222L101.442,67.222z"/>
			<path id="path87" fill="#1A171B" d="M107.937,70.391c0.014,1.527,0.503,2.622,1.684,2.622c0.965,0,1.498-0.174,1.959-1.167
				l0.375,0.201c-0.549,1.758-1.874,2.205-3.4,2.205c-2.564,0-3.789-1.095-3.789-3.803c0-2.52,1.369-3.875,3.861-3.875
				c3.458,0,3.485,2.333,3.485,3.083c0,0.489-0.129,0.734-0.618,0.734H107.937z M108.815,69.772c0.375-0.03,0.489-0.074,0.489-0.649
				c0-0.491,0-2.003-0.647-2.003c-0.577,0-0.72,1.454-0.72,2.708L108.815,69.772L108.815,69.772z"/>
			<path id="path89" fill="#1A171B" d="M112.919,71.255h0.489c0.461,1.153,1.441,2.464,2.434,2.464c0.491,0,0.85-0.217,0.85-0.836
				c0-0.562-0.518-0.922-1.513-1.354c-1.165-0.489-2.161-0.994-2.161-2.549c0-1.542,1.153-2.406,3.17-2.406
				c0.762,0,1.684,0.158,2.377,0.505v2.175h-0.477c-0.446-1.211-1.182-2.133-1.916-2.133c-0.475,0-0.85,0.246-0.85,0.778
				c0,0.505,0.418,0.822,1.744,1.354c1.383,0.561,2.031,1.051,2.031,2.377c0,1.67-1.195,2.622-3.284,2.622
				c-0.734,0-1.987-0.146-2.666-0.62L112.919,71.255L112.919,71.255z"/>
		</g>
		<g id="g91">
			<path id="path93" fill="#1A171B" d="M79.656,39.808c0,0.448,0.08,0.551,0.2,0.599c0.087,0.032,0.2,0.032,0.295,0.024v0.112
				c-0.231,0.136-0.511,0.217-0.887,0.217c-0.375,0-0.511-0.208-0.575-0.487c-0.264,0.167-0.6,0.487-1.08,0.487
				c-0.751,0-1.087-0.528-1.087-1.095c0-0.408,0.167-0.719,0.767-0.887c0.544-0.145,1.2-0.328,1.383-0.52v-0.463
				c0-0.496-0.208-0.727-0.526-0.727c-0.313,0-0.551,0.199-0.687,0.911c-0.041,0.168-0.136,0.232-0.297,0.232
				c-0.183,0-0.518-0.112-0.518-0.423c0-0.408,0.559-0.904,1.598-0.904c1.287,0,1.416,0.623,1.416,1.087v1.838H79.656z
				 M78.672,38.473c-0.175,0.087-0.48,0.216-0.726,0.351c-0.28,0.128-0.384,0.319-0.384,0.68c0,0.455,0.216,0.848,0.608,0.848
				c0.192,0,0.503-0.112,0.503-0.56L78.672,38.473L78.672,38.473z"/>
			<path id="path95" fill="#1A171B" d="M81.912,40.096c0,0.328,0.033,0.352,0.625,0.392v0.176h-2.103v-0.176
				c0.439-0.024,0.472-0.064,0.472-0.392v-2.422c0-0.287-0.064-0.359-0.192-0.383l-0.241-0.032v-0.151l1.328-0.217l0.087,0.719
				c0.472-0.495,0.687-0.727,1-0.727c0.318,0,0.495,0.2,0.495,0.487c0,0.272-0.2,0.592-0.495,0.592c-0.12,0-0.208-0.056-0.28-0.12
				c-0.161-0.144-0.264-0.216-0.4-0.216c-0.184,0-0.297,0.176-0.297,0.608L81.912,40.096L81.912,40.096z"/>
			<path id="path97" fill="#1A171B" d="M84.114,37.682c0-0.304-0.056-0.36-0.2-0.384l-0.225-0.04v-0.151l1.4-0.217l0.031,0.024
				v3.182c0,0.344,0.033,0.36,0.472,0.392v0.176H83.65v-0.176c0.423-0.024,0.464-0.049,0.464-0.392V37.682z M84.609,35.371
				c0.328,0,0.52,0.24,0.52,0.519c0,0.288-0.2,0.528-0.528,0.528c-0.328,0-0.52-0.24-0.52-0.528c0-0.28,0.192-0.519,0.52-0.519
				H84.609L84.609,35.371z"/>
			<path id="path99" fill="#1A171B" d="M88.361,38.121c-0.136-0.583-0.52-1.047-0.928-1.047c-0.351,0-0.536,0.216-0.536,0.551
				c0,0.391,0.328,0.551,0.792,0.727c0.68,0.264,1.08,0.536,1.08,1.183c0,0.776-0.608,1.223-1.48,1.223
				c-0.416,0-0.913-0.104-1.151-0.312l-0.088-1.118h0.167c0.177,0.623,0.608,1.247,1.111,1.247c0.328,0,0.592-0.168,0.592-0.567
				c0-0.368-0.272-0.576-0.775-0.776c-0.649-0.255-1.056-0.583-1.056-1.159c0-0.744,0.536-1.191,1.375-1.191
				c0.377,0,0.761,0.08,1.056,0.248v0.991H88.361L88.361,38.121z"/>
		</g>
		<g id="g101">
			<path id="path103" fill="#1A171B" d="M73.448,46.432c0,0.384,0.049,0.432,0.584,0.456v0.176h-2.254v-0.176
				c0.559-0.024,0.583-0.056,0.583-0.456v-4.006c0-0.391-0.023-0.432-0.583-0.464v-0.176h2.254v0.176
				c-0.528,0.032-0.584,0.056-0.584,0.464V46.432z"/>
			<path id="path105" fill="#1A171B" d="M74.786,42.043c0-0.304-0.056-0.376-0.192-0.4l-0.264-0.04v-0.16l1.454-0.144l0.01,0.008
				v5.198c0,0.335,0.031,0.351,0.47,0.383v0.176h-1.95v-0.176c0.439-0.024,0.472-0.049,0.472-0.383L74.786,42.043L74.786,42.043z"/>
			<path id="path107" fill="#1A171B" d="M77.761,45.089c-0.008,0.863,0.233,1.623,1.023,1.623c0.551,0,0.864-0.249,1.103-0.776
				L80.024,46c-0.239,0.672-0.687,1.159-1.567,1.159c-1.359,0-1.758-0.855-1.758-1.935c0-1.063,0.472-1.943,1.783-1.943
				c1.431,0,1.575,0.999,1.575,1.527c0,0.208-0.113,0.28-0.384,0.28L77.761,45.089L77.761,45.089z M78.784,44.889
				c0.192,0,0.249-0.072,0.249-0.28c0-0.487-0.08-1.135-0.6-1.135c-0.551,0-0.672,0.855-0.672,1.415H78.784L78.784,44.889z"/>
			<path id="path109" fill="#1A171B" d="M84.504,41.635l-0.313-0.04v-0.16l1.487-0.136l0.016,0.016v5.182
				c0,0.336,0.049,0.368,0.495,0.392v0.176h-1.494v-0.408c-0.408,0.319-0.833,0.504-1.136,0.504c-0.92,0-1.454-0.632-1.454-1.863
				c0-0.671,0.208-1.207,0.551-1.535c0.344-0.319,0.783-0.48,1.334-0.48c0.272,0,0.528,0.04,0.705,0.12v-1.367
				C84.697,41.715,84.632,41.651,84.504,41.635L84.504,41.635z M84.697,44.241c0-0.176,0-0.327-0.064-0.448
				c-0.089-0.176-0.28-0.319-0.592-0.319c-0.528,0-0.872,0.487-0.872,1.686c0,0.936,0.344,1.591,0.887,1.591
				c0.264,0,0.441-0.08,0.536-0.256c0.087-0.119,0.105-0.28,0.105-0.448V44.241z"/>
			<path id="path111" fill="#1A171B" d="M87.663,45.089c-0.008,0.863,0.233,1.623,1.023,1.623c0.553,0,0.864-0.249,1.105-0.776
				L89.927,46c-0.241,0.672-0.687,1.159-1.567,1.159c-1.359,0-1.759-0.855-1.759-1.935c0-1.063,0.472-1.943,1.783-1.943
				c1.431,0,1.575,0.999,1.575,1.527c0,0.208-0.113,0.28-0.384,0.28L87.663,45.089L87.663,45.089z M88.687,44.889
				c0.192,0,0.249-0.072,0.249-0.28c0-0.487-0.08-1.135-0.6-1.135c-0.551,0-0.672,0.855-0.672,1.415H88.687L88.687,44.889z"/>
			<path id="path113" fill="#1A171B" d="M95.824,41.787v1.376h-0.177c-0.239-0.864-0.447-1.151-1.254-1.151h-0.528
				c-0.223,0-0.272,0.048-0.272,0.28v2.047h0.951c0.528,0,0.623-0.223,0.736-0.767h0.177v1.757h-0.177
				c-0.113-0.544-0.208-0.767-0.736-0.767h-0.951v1.87c0,0.4,0.049,0.424,0.705,0.456v0.176h-2.375v-0.176
				c0.518-0.032,0.583-0.056,0.583-0.456v-4.006c0-0.408-0.023-0.432-0.583-0.464v-0.176L95.824,41.787L95.824,41.787z"/>
			<path id="path115" fill="#1A171B" d="M97.784,46.496c0,0.328,0.033,0.352,0.623,0.392v0.176h-2.103v-0.176
				c0.441-0.024,0.472-0.064,0.472-0.392v-2.422c0-0.287-0.064-0.359-0.19-0.383l-0.241-0.032v-0.151l1.328-0.217l0.087,0.719
				c0.472-0.495,0.687-0.727,0.998-0.727c0.32,0,0.497,0.2,0.497,0.487c0,0.272-0.2,0.592-0.497,0.592
				c-0.118,0-0.208-0.056-0.28-0.12c-0.159-0.144-0.264-0.216-0.4-0.216c-0.183,0-0.295,0.176-0.295,0.608L97.784,46.496
				L97.784,46.496z"/>
			<path id="path117" fill="#1A171B" d="M102.664,46.208c0,0.448,0.08,0.551,0.2,0.599c0.087,0.032,0.2,0.032,0.295,0.024v0.112
				c-0.231,0.136-0.513,0.217-0.887,0.217c-0.377,0-0.513-0.208-0.577-0.487c-0.262,0.167-0.598,0.487-1.078,0.487
				c-0.751,0-1.087-0.528-1.087-1.095c0-0.408,0.167-0.719,0.767-0.887c0.544-0.145,1.2-0.328,1.383-0.52v-0.463
				c0-0.496-0.208-0.727-0.528-0.727c-0.311,0-0.551,0.199-0.687,0.911c-0.039,0.168-0.136,0.232-0.295,0.232
				c-0.184,0-0.52-0.112-0.52-0.423c0-0.408,0.561-0.904,1.6-0.904c1.287,0,1.416,0.623,1.416,1.087v1.838H102.664z M101.68,44.873
				c-0.175,0.087-0.48,0.216-0.726,0.351c-0.282,0.128-0.384,0.319-0.384,0.68c0,0.455,0.216,0.848,0.608,0.848
				c0.192,0,0.503-0.112,0.503-0.56L101.68,44.873L101.68,44.873z"/>
			<path id="path119" fill="#1A171B" d="M107.311,46.52c0,0.344,0.033,0.336,0.472,0.368v0.176h-1.911v-0.176
				c0.32-0.024,0.431-0.017,0.431-0.36v-2.086c0-0.495-0.223-0.751-0.631-0.751c-0.336,0-0.575,0.183-0.68,0.383
				c-0.049,0.104-0.072,0.272-0.072,0.44v2.014c0,0.344,0.113,0.328,0.423,0.36v0.176h-1.902v-0.176
				c0.441-0.024,0.472-0.056,0.472-0.4V44.09c0-0.312-0.047-0.376-0.19-0.392l-0.241-0.04v-0.151l1.336-0.217l0.103,0.536
				c0.487-0.296,0.831-0.544,1.287-0.544c0.759,0,1.103,0.464,1.103,1.183L107.311,46.52L107.311,46.52z"/>
			<path id="path121" fill="#1A171B" d="M111.519,45.984c-0.231,0.855-0.887,1.168-1.583,1.168c-1.087,0-1.718-0.64-1.718-1.895
				c0-1.167,0.616-1.975,1.87-1.975c0.72,0,1.367,0.32,1.367,0.808c0,0.319-0.328,0.448-0.567,0.448
				c-0.184,0-0.303-0.072-0.336-0.24c-0.087-0.512-0.192-0.823-0.567-0.823c-0.392,0-0.705,0.535-0.705,1.575
				c0,1.103,0.425,1.663,1,1.663c0.431,0,0.847-0.152,1.118-0.783L111.519,45.984z"/>
			<path id="path123" fill="#1A171B" d="M113.04,45.089c-0.008,0.863,0.231,1.623,1.023,1.623c0.551,0,0.864-0.249,1.103-0.776
				L115.303,46c-0.239,0.672-0.687,1.159-1.567,1.159c-1.359,0-1.759-0.855-1.759-1.935c0-1.063,0.472-1.943,1.783-1.943
				c1.431,0,1.577,0.999,1.577,1.527c0,0.208-0.113,0.28-0.384,0.28L113.04,45.089L113.04,45.089z M114.063,44.889
				c0.192,0,0.249-0.072,0.249-0.28c0-0.487-0.082-1.135-0.6-1.135c-0.551,0-0.672,0.855-0.672,1.415H114.063L114.063,44.889z"/>
		</g>
		<path id="path125" fill="#1A171B" d="M75.416,35.659c-0.367-0.223-0.783-0.272-1.383-0.272H71.77v0.176
			c0.559,0.032,0.59,0.056,0.59,0.456v4.006c0,0.053,0,0.098-0.002,0.139l0.442-0.489h0.183l0.459,0.495
			c-0.002-0.042-0.003-0.09-0.003-0.146v-1.486c0.113,0.016,0.297,0.032,0.464,0.032c0.623,0,1.064-0.104,1.398-0.32
			c0.425-0.248,0.705-0.671,0.705-1.327C76.007,36.323,75.792,35.891,75.416,35.659L75.416,35.659z M73.928,38.377
			c-0.311,0-0.487-0.064-0.487-0.344v-2.175c0-0.216,0.025-0.28,0.433-0.28c0.567,0,1.014,0.44,1.014,1.367
			C74.888,37.737,74.688,38.377,73.928,38.377L73.928,38.377z"/>
		<path id="path127" fill="#1A171B" d="M73.92,41.357l-0.926-0.504c-0.072-0.049-0.144-0.056-0.217,0l-0.895,0.504l-0.087-0.12
			l1.008-1.112h0.183l1.033,1.112L73.92,41.357z"/>
	</g>
</g>
<g id="layer1" transform="matrix(3.7733156,0,0,3.7733156,-241.21346,-1766.7333)">
	<g id="g4678" transform="matrix(2.6305,0,0,2.6305,1394.6,-1640.5)">
		<g id="g4200" transform="matrix(1.25,0,0,-1.25,-897.76,966.38)">
			<g id="g4202">
				<g id="g4208">
					<g id="g4210">
						
							<radialGradient id="path4218_1_" cx="357.9285" cy="67.2675" r="0.9996" gradientTransform="matrix(381.0876 0 0 -381.0876 -136053.5781 25741.4512)" gradientUnits="userSpaceOnUse">
							<stop  offset="0" style="stop-color:#456587"/>
							<stop  offset="1" style="stop-color:#00294B"/>
						</radialGradient>
						<path id="path4218" fill="url(#path4218_1_)" d="M340.639,125.278c-6.014,0-11.461-2.565-16.209-7.639
							c-4.285-4.58-5.75-8.274-5.762-12.711v-0.115c0.007-2.401,0.434-5.023,1.064-8.122c1.186-5.828,4.646-11.454,9.491-15.438
							c3.71-3.049,7.848-4.606,12.208-4.635c2.259-0.015,4.578,0.38,6.93,1.192c7.59,2.62,14.85,10.121,17.657,18.24
							c0.87,2.521,1.302,4.975,1.31,7.315v0.135c-0.022,5.815-2.679,10.913-7.755,14.558c-6.158,4.423-12.081,6.838-17.606,7.178
							c-0.438,0.027-0.873,0.041-1.305,0.042H340.639"/>
					</g>
				</g>
			</g>
		</g>
		<g id="g4220" transform="matrix(1.25,0,0,-1.25,-897.76,966.38)">
			<g>
				<defs>
					<rect id="SVGID_1_" x="28.27" y="-219.72" width="628.883" height="641.458"/>
				</defs>
				<clipPath id="SVGID_2_">
					<use xlink:href="#SVGID_1_"  overflow="visible"/>
				</clipPath>
				<g id="g4222" clip-path="url(#SVGID_2_)">
					<g id="g4228" transform="translate(339.02,94.756)">
						<path id="path4230" fill="#FFFFFF" d="M-5.1,7.407h-1.669L-6.772,7.36c-0.013-0.324-0.206-3.163-2.746-3.163
							c-2.27,0-3.422,2.035-3.426,6.048c0.003,4.014,1.155,6.048,3.426,6.048c2.584,0,2.741-3.034,2.746-3.162l0.002-0.047H-5.1
							c0.154,0,0.304,0.063,0.411,0.173c0.103,0.106,0.156,0.243,0.149,0.386c-0.034,0.787-0.438,4.715-5.001,4.715
							c-3.686,0-5.635-2.802-5.635-8.103c0-5.312,1.949-8.12,5.635-8.12c4.391,0,4.937,3.587,5,4.686
							c0.011,0.152-0.041,0.298-0.147,0.41C-4.795,7.342-4.946,7.407-5.1,7.407"/>
					</g>
					<g id="g4232" transform="translate(369.29,99.509)">
						<path id="path4234" fill="#62C4DD" d="M-11.155,6.456L-11.155,6.456l-1.438,0.626c-1.382,0.607-1.872,1.198-1.872,2.258
							c0,1.382,1.011,2.312,2.517,2.312c0.89,0,1.62-0.182,2.511-1.09l0.049-0.05l0.767,0.702c0.444,0.413,0.315,0.784,0.13,1.022
							c-0.748,0.883-1.95,1.368-3.384,1.368c-2.766,0-4.774-1.805-4.774-4.291c0-2.446,1.541-3.467,3.206-4.207l1.467-0.655
							c1.474-0.661,2.175-1.225,2.175-2.642c0-1.934-1.747-2.45-2.781-2.45c-0.888,0-1.877,0.19-3.092,1.567l-0.048,0.054
							l-0.799-0.702c-0.411-0.362-0.414-0.671-0.014-1.186c1.1-1.414,2.713-1.711,3.872-1.711c2.508,0,5.046,1.54,5.046,4.483
							C-7.616,4.412-9.031,5.542-11.155,6.456"/>
					</g>
					<g id="g4236" transform="translate(353,102.64)">
						<path id="path4238" fill="#62C4DD" d="M-7.897,5.83c0,2.505-2.03,4.626-4.535,4.626c-1.178,0-2.251-0.45-3.058-1.186v0.861
							h-1.509c-0.454,0-0.628-0.296-0.628-0.638V-5.121c0-0.411,0.251-0.631,0.621-0.631h1.51V5.741c0,1.51,1.225,2.734,2.734,2.734
							c1.51,0,2.734-1.225,2.734-2.734V-5.754h1.5c0.415,0,0.631,0.23,0.631,0.628V5.83z"/>
					</g>
					<g id="g4240" transform="translate(362.74,107.06)">
						<path id="path4242" fill="#FFFFFF" d="M-9.845,4.946c0.078,0.098,0.127,0.221,0.127,0.355c0,0.252-0.164,0.463-0.39,0.539
							c-0.436,0.146-0.902,0.226-1.385,0.226c-1.178,0-2.251-0.449-3.058-1.186v0.861h-1.509c-0.454,0-0.628-0.297-0.628-0.638
							V-9.511c0-0.411,0.251-0.631,0.622-0.631h1.509V1.352c0,1.51,1.224,2.734,2.734,2.734c0.396,0,0.771-0.086,1.11-0.237
							l0.871,1.094L-9.845,4.946z"/>
					</g>
					<g id="g4244" transform="translate(347.43,68.4)">
						<path id="path4246" fill="#FFFFFF" d="M-6.783,12.678c0-0.224-0.182-0.405-0.406-0.405c-0.223,0-0.405,0.181-0.405,0.405
							v27.574c0,0.224,0.182,0.406,0.405,0.406c0.224,0,0.406-0.182,0.406-0.406V12.678z"/>
					</g>
				</g>
			</g>
		</g>
	</g>
</g>
</svg>
