<?xml version="1.0" encoding="utf-8"?>
<!-- Generator: Adobe Illustrator 15.0.2, SVG Export Plug-In . SVG Version: 6.00 Build 0)  -->
<!DOCTYPE svg PUBLIC "-//W3C//DTD SVG 1.1//EN" "http://www.w3.org/Graphics/SVG/1.1/DTD/svg11.dtd">
<svg version="1.1" id="Calque_1" xmlns="http://www.w3.org/2000/svg" xmlns:xlink="http://www.w3.org/1999/xlink" x="0px" y="0px"
	 width="368.938px" height="158.832px" viewBox="0 0 368.938 158.832" enable-background="new 0 0 368.938 158.832"
	 xml:space="preserve">
<g>
	<path fill="#E6142D" d="M46.715,75.699c0,0,4.663,4.542,10.719,4.542c3.27,0,6.238-1.696,6.238-5.208
		c0-7.691-20.287-6.359-20.287-19.561c0-7.146,6.176-12.475,14.413-12.475c8.478,0,12.837,4.603,12.837,4.603l-3.39,6.359
		c0,0-4.119-3.755-9.508-3.755c-3.634,0-6.48,2.119-6.48,5.147c0,7.631,20.227,5.753,20.227,19.5
		c0,6.843-5.208,12.596-14.171,12.596c-9.568,0-14.837-5.874-14.837-5.874L46.715,75.699z"/>
	<path fill="#E6142D" d="M89.559,58.225c7.26,0,10.7,4.149,10.7,4.149l-3.058,4.749c0,0-2.893-3.002-7.26-3.002
		c-5.131,0-8.461,3.876-8.461,8.625c0,4.694,3.384,8.734,8.68,8.734c4.694,0,8.187-3.548,8.187-3.548l2.676,4.913
		c0,0-3.985,4.53-11.464,4.53c-9.226,0-15.121-6.496-15.121-14.576C74.438,64.885,80.333,58.225,89.559,58.225"/>
	<path fill="#E6142D" d="M105.12,47.962h6.878v6.169h-6.878V47.962z M105.12,58.88h6.933v27.84h-6.933V58.88z"/>
	<path fill="#E6142D" d="M130.777,58.225c8.025,0,12.337,5.841,12.337,13.21c0,0.819-0.163,2.675-0.163,2.675h-19.215
		c0.436,4.859,4.203,7.37,8.352,7.37c4.476,0,8.024-3.057,8.024-3.057l2.675,4.967c0,0-4.257,3.985-11.191,3.985
		c-9.225,0-14.957-6.66-14.957-14.575C116.64,64.23,122.48,58.225,130.777,58.225 M136.127,69.361
		c-0.109-3.767-2.456-5.787-5.513-5.787c-3.548,0-6.005,2.184-6.66,5.787H136.127z"/>
	<path fill="#E6142D" d="M147.758,58.88h6.66v3.22c0,1.038-0.11,1.911-0.11,1.911h0.11c1.201-2.347,4.257-5.786,9.88-5.786
		c6.169,0,9.663,3.221,9.663,10.59V86.72h-6.878V70.234c0-3.384-0.874-5.677-4.423-5.677c-3.711,0-6.441,2.347-7.478,5.677
		c-0.382,1.147-0.492,2.402-0.492,3.712V86.72h-6.932V58.88z"/>
	<path fill="#E6142D" d="M193.234,58.225c7.261,0,10.7,4.149,10.7,4.149l-3.058,4.749c0,0-2.894-3.002-7.261-3.002
		c-5.131,0-8.46,3.876-8.46,8.625c0,4.694,3.384,8.734,8.679,8.734c4.695,0,8.188-3.548,8.188-3.548l2.675,4.913
		c0,0-3.985,4.53-11.464,4.53c-9.227,0-15.121-6.496-15.121-14.576C178.113,64.885,184.008,58.225,193.234,58.225"/>
	<path fill="#E6142D" d="M220.969,58.225c8.025,0,12.337,5.841,12.337,13.21c0,0.819-0.163,2.675-0.163,2.675h-19.215
		c0.437,4.859,4.203,7.37,8.353,7.37c4.476,0,8.023-3.057,8.023-3.057l2.675,4.967c0,0-4.257,3.985-11.19,3.985
		c-9.226,0-14.957-6.66-14.957-14.575C206.831,64.23,212.672,58.225,220.969,58.225 M226.318,69.361
		c-0.108-3.767-2.455-5.787-5.513-5.787c-3.548,0-6.005,2.184-6.66,5.787H226.318z"/>
	<path fill="#E6142D" d="M239.86,78.422c0,0,3.057,3.057,7.588,3.057c1.965,0,3.657-0.873,3.657-2.511
		c0-4.149-13.537-3.603-13.537-12.556c0-5.186,4.639-8.188,10.644-8.188c6.278,0,9.335,3.166,9.335,3.166l-2.565,5.132
		c0,0-2.565-2.402-6.824-2.402c-1.801,0-3.548,0.764-3.548,2.511c0,3.93,13.537,3.439,13.537,12.392
		c0,4.64-4.038,8.352-10.645,8.352c-6.932,0-10.808-4.095-10.808-4.095L239.86,78.422z"/>
	<path fill="#E6142D" d="M264.257,43.724h16.592c8.055,0,13.686,5.632,13.686,13.989s-5.631,14.171-13.686,14.171h-8.78V86.72
		h-7.812V43.724z M279.396,65.101c4.542,0,7.207-2.907,7.207-7.388c0-4.421-2.665-7.267-7.086-7.267h-7.448v14.655H279.396z"/>
	<path fill="#E6142D" d="M310.601,58.225c8.516,0,15.34,6.059,15.34,14.575c0,8.571-6.824,14.576-15.285,14.576
		c-8.517,0-15.34-6.005-15.34-14.576C295.315,64.284,302.139,58.225,310.601,58.225 M310.655,81.479c4.476,0,8.243-3.494,8.243-8.68
		c0-5.131-3.768-8.679-8.243-8.679c-4.531,0-8.297,3.548-8.297,8.679C302.358,77.985,306.124,81.479,310.655,81.479"/>
	<path fill="#E6142D" d="M43.737,100.673h2.897l2.919,7.37c0.336,0.882,0.756,2.184,0.756,2.184h0.042c0,0,0.399-1.302,0.735-2.184
		l2.918-7.37h2.898l1.196,14.907h-2.687l-0.63-8.335c-0.063-0.986-0.021-2.31-0.021-2.31h-0.042c0,0-0.441,1.449-0.798,2.31
		l-2.414,5.774h-2.373l-2.394-5.774c-0.356-0.86-0.818-2.331-0.818-2.331h-0.042c0,0,0.042,1.345-0.021,2.331l-0.63,8.335h-2.709
		L43.737,100.673z"/>
	<path fill="#E6142D" d="M61.419,100.673h8.923v2.331h-6.215v3.905h5.019v2.331h-5.019v4.01h6.551v2.331h-9.259V100.673z
		 M66.542,96.831h2.75l-2.204,2.854h-2.142L66.542,96.831z"/>
	<path fill="#E6142D" d="M73.494,100.673h5.081c4.598,0,7.601,2.73,7.601,7.434c0,4.702-3.003,7.475-7.601,7.475h-5.081V100.673z
		 M78.428,113.25c3.023,0,4.955-1.785,4.955-5.144c0-3.317-1.974-5.103-4.955-5.103h-2.226v10.246H78.428z"/>
	<rect x="89.013" y="100.673" fill="#E6142D" width="2.708" height="14.907"/>
	<path fill="#E6142D" d="M102.914,111.759h-5.229l-1.259,3.822h-2.793l5.249-14.908h2.835l5.249,14.908h-2.793L102.914,111.759z
		 M100.289,103.256c0,0-0.336,1.47-0.63,2.31l-1.323,3.989h3.906l-1.323-3.989c-0.273-0.84-0.588-2.31-0.588-2.31H100.289z"/>
	<polygon fill="#E6142D" points="108.878,100.673 111.586,100.673 111.586,113.25 118.033,113.25 118.033,115.58 108.878,115.58 	
		"/>
	<path fill="#E6142D" d="M128.092,111.759h-5.229l-1.259,3.822h-2.793l5.249-14.908h2.835l5.249,14.908h-2.793L128.092,111.759z
		 M125.467,103.256c0,0-0.336,1.47-0.63,2.31l-1.323,3.989h3.906l-1.323-3.989c-0.273-0.84-0.588-2.31-0.588-2.31H125.467z"/>
	<path fill="#E6142D" d="M134.057,100.673h5.333c2.688,0,4.598,1.386,4.598,3.843c0,1.386-0.672,2.582-1.805,3.191v0.042
		c1.637,0.483,2.414,1.995,2.414,3.506c0,2.982-2.393,4.326-5.144,4.326h-5.396V100.673z M139.39,106.762
		c1.176,0,1.848-0.84,1.848-1.91s-0.63-1.848-1.89-1.848h-2.582v3.758H139.39z M139.663,113.25c1.386,0,2.163-0.903,2.163-2.163
		c0-1.238-0.798-2.141-2.163-2.141h-2.897v4.304H139.663z"/>
</g>
</svg>
