<?xml version="1.0" encoding="utf-8"?>
<!-- Generator: Adobe Illustrator 15.0.2, SVG Export Plug-In . SVG Version: 6.00 Build 0)  -->
<!DOCTYPE svg PUBLIC "-//W3C//DTD SVG 1.1//EN" "http://www.w3.org/Graphics/SVG/1.1/DTD/svg11.dtd">
<svg version="1.1" id="Calque_1" xmlns="http://www.w3.org/2000/svg" xmlns:xlink="http://www.w3.org/1999/xlink" x="0px" y="0px"
	 width="196px" height="123px" viewBox="0 0 196 123" enable-background="new 0 0 196 123" xml:space="preserve">
<path d="M120.703,35.141c0.673,0,1.174-0.16,1.502-0.473c0.32-0.317,0.485-0.739,0.485-1.267c0-0.552-0.169-1.001-0.501-1.334
	c-0.332-0.336-0.821-0.504-1.463-0.504h-1.921v3.579H120.703z M116.494,29.556h4.279c0.962,0,1.756,0.168,2.39,0.504
	s1.1,0.79,1.404,1.361c0.302,0.567,0.454,1.208,0.454,1.92s-0.148,1.349-0.446,1.909c-0.297,0.559-0.755,1.005-1.369,1.33
	c-0.626,0.321-1.4,0.485-2.331,0.485h-2.065v5.1h-2.315V29.556z"/>
<path d="M127.438,41.626c-0.54-0.626-0.806-1.623-0.806-3V32.72h2.237v5.906c0,0.712,0.113,1.232,0.352,1.572
	c0.243,0.348,0.575,0.516,0.994,0.516c0.375,0,0.724-0.102,1.032-0.297c0.305-0.196,0.552-0.474,0.728-0.83
	c0.18-0.356,0.266-0.755,0.266-1.205V32.72h2.284v7.905c0,0.403,0.016,0.712,0.031,0.919c0.023,0.211,0.087,0.418,0.181,0.625
	h-2.214c-0.086-0.164-0.141-0.329-0.164-0.489c-0.024-0.164-0.04-0.368-0.04-0.61c-0.258,0.458-0.633,0.817-1.126,1.091
	c-0.485,0.274-0.962,0.411-1.42,0.411C128.753,42.572,127.975,42.256,127.438,41.626"/>
<path d="M141.797,40.276c0.309-0.203,0.575-0.532,0.778-0.985c0.207-0.45,0.313-1.033,0.313-1.737c0-0.966-0.181-1.737-0.536-2.327
	c-0.356-0.587-0.884-0.876-1.592-0.876c-0.673,0-1.135,0.266-1.393,0.806c-0.255,0.536-0.384,1.259-0.384,2.178
	c0,1.13,0.157,1.956,0.474,2.472c0.32,0.524,0.771,0.778,1.365,0.778C141.155,40.585,141.48,40.48,141.797,40.276 M139.735,42.158
	c-0.434-0.215-0.806-0.516-1.118-0.899l-0.306,0.911h-1.58V28.511h2.43v0.227c-0.075,0.079-0.122,0.165-0.138,0.262
	c-0.023,0.094-0.027,0.254-0.023,0.481v4.048c0.29-0.321,0.63-0.575,1.014-0.751c0.387-0.18,0.778-0.266,1.169-0.266
	c0.728,0,1.393,0.18,1.999,0.54c0.606,0.356,1.091,0.892,1.451,1.604c0.355,0.712,0.536,1.576,0.536,2.589
	c0,1.107-0.192,2.054-0.575,2.848c-0.392,0.79-0.892,1.38-1.518,1.783c-0.618,0.396-1.279,0.595-1.972,0.595
	C140.628,42.471,140.17,42.369,139.735,42.158"/>
<polygon points="147.194,42.166 147.194,40.41 149.788,40.41 149.788,30.271 147.323,30.271 147.323,28.511 152.08,28.511 
	152.08,40.41 154.646,40.41 154.646,42.166 "/>
<path d="M160.31,30.897c-0.22-0.121-0.392-0.286-0.517-0.489c-0.125-0.208-0.188-0.426-0.188-0.661c0-0.391,0.133-0.716,0.398-0.966
	c0.259-0.254,0.599-0.38,1.018-0.38c0.242,0,0.473,0.063,0.696,0.184c0.219,0.125,0.395,0.29,0.523,0.493
	c0.134,0.208,0.2,0.426,0.2,0.669c0,0.235-0.066,0.454-0.2,0.661c-0.129,0.203-0.305,0.368-0.523,0.489
	c-0.224,0.122-0.454,0.184-0.696,0.184C160.763,31.081,160.521,31.019,160.31,30.897 M157.759,42.166v-1.819h2.269v-5.808h-2.158
	v-1.815h4.423v7.623h2.069v1.819H157.759z"/>
<path d="M174.21,35.97c0,0.008-0.008,0.008-0.008,0.008c-0.023,0-0.059-0.023-0.113-0.074l0.059-0.071
	C174.187,35.912,174.21,35.955,174.21,35.97 M173.874,35.79c0-0.016,0.008-0.027,0.016-0.027c0.043,0,0.109,0.047,0.199,0.141
	l-0.043,0.047l-0.172-0.149V35.79z M172.263,40.546c0,0,0.207-0.098,0.618-0.297c0.41-0.195,0.798-0.516,1.149-0.958l1.314,1.521
	c-0.509,0.575-1.076,0.997-1.713,1.271c-0.634,0.274-1.307,0.407-2.011,0.407c-0.923,0-1.744-0.211-2.472-0.638
	c-0.724-0.43-1.291-1.024-1.694-1.775c-0.402-0.755-0.605-1.604-0.605-2.542c0-0.939,0.203-1.788,0.605-2.554
	c0.403-0.763,0.971-1.365,1.702-1.803c0.728-0.446,1.557-0.661,2.483-0.661c0.778,0,1.506,0.156,2.187,0.469
	c0.681,0.317,1.212,0.767,1.6,1.345l-1.264,1.482l-0.012,0.023c-0.008,0-0.012-0.008-0.012-0.016
	c-0.273-0.477-0.61-0.837-1.009-1.072c-0.392-0.23-0.888-0.352-1.49-0.352c-0.458,0-0.88,0.133-1.256,0.396
	c-0.383,0.266-0.681,0.637-0.899,1.119c-0.223,0.481-0.336,1.032-0.336,1.662c0,0.599,0.105,1.123,0.313,1.568
	c0.211,0.446,0.501,0.794,0.876,1.041c0.376,0.243,0.802,0.364,1.287,0.364H172.263z"/>
<path d="M119.35,64.672c1.182,0,2.058-0.372,2.633-1.119c0.574-0.743,0.864-1.831,0.864-3.258c0-3.047-1.096-4.569-3.294-4.569
	h-0.974v8.946H119.35z M116.377,53.841h3.259c1.075,0,1.928,0.145,2.562,0.431c0.642,0.285,1.182,0.731,1.627,1.33
	c0.868,1.173,1.295,2.714,1.295,4.631c0,1.991-0.458,3.524-1.389,4.6c-0.927,1.075-2.37,1.619-4.342,1.619h-3.012V53.841z"/>
<path d="M131.749,64.335c0.391-0.422,0.626-1.091,0.704-1.994h-0.458c-1.158,0-2.003,0.125-2.534,0.371
	c-0.536,0.254-0.802,0.649-0.802,1.189c0,0.367,0.133,0.637,0.398,0.81c0.266,0.172,0.634,0.258,1.104,0.258
	C130.829,64.969,131.365,64.758,131.749,64.335 M133.423,57.627c0.751,0.618,1.126,1.643,1.126,3.071v5.75h-2.166v-0.849
	c-0.36,0.344-0.799,0.614-1.307,0.806c-0.517,0.191-1.064,0.293-1.65,0.293c-0.979,0-1.729-0.242-2.237-0.728
	c-0.521-0.484-0.774-1.142-0.774-1.971c0-0.669,0.215-1.248,0.641-1.718c0.423-0.473,1.033-0.84,1.839-1.083
	c0.798-0.247,1.756-0.372,2.863-0.372h0.696c-0.07-0.821-0.267-1.412-0.606-1.764c-0.337-0.352-0.845-0.528-1.529-0.528
	c-0.438,0-0.884,0.113-1.354,0.34c-0.47,0.227-0.899,0.543-1.295,0.954l-1.153-1.494c0.59-0.536,1.228-0.946,1.908-1.22
	c0.685-0.278,1.354-0.418,2.011-0.418C131.687,56.696,132.676,57.005,133.423,57.627"/>
<path d="M144.93,65.599c-0.492,0.371-1.001,0.653-1.533,0.845c-0.531,0.195-1.103,0.293-1.725,0.293
	c-0.981,0-1.732-0.293-2.249-0.872c-0.524-0.579-0.786-1.576-0.786-2.992c0-0.363,0.023-0.763,0.059-1.197l0.168-2.835h-2.046
	l0.04-1.834h2.115l0.129-2.214l2.488-0.415l0.043,0.223c-0.012,0.023-0.051,0.071-0.102,0.145c-0.051,0.078-0.098,0.164-0.121,0.266
	c-0.039,0.102-0.059,0.223-0.063,0.359l-0.153,1.631h2.906l-0.039,1.838h-2.902l-0.219,2.691c-0.031,0.458-0.047,0.83-0.047,1.107
	c0,0.837,0.098,1.42,0.301,1.752c0.208,0.333,0.528,0.501,0.963,0.501c0.41,0,0.786-0.082,1.13-0.238
	c0.356-0.157,0.739-0.423,1.158-0.79L144.93,65.599z"/>
<path d="M151.986,64.335c0.391-0.422,0.626-1.091,0.704-1.994h-0.458c-1.158,0-2.003,0.125-2.534,0.371
	c-0.536,0.254-0.802,0.649-0.802,1.189c0,0.367,0.133,0.637,0.398,0.81c0.266,0.172,0.634,0.258,1.104,0.258
	C151.066,64.969,151.599,64.758,151.986,64.335 M153.66,57.627c0.751,0.618,1.126,1.643,1.126,3.071v5.75h-2.166v-0.849
	c-0.364,0.344-0.799,0.614-1.307,0.806c-0.517,0.191-1.064,0.293-1.65,0.293c-0.979,0-1.729-0.242-2.241-0.728
	c-0.517-0.48-0.771-1.142-0.771-1.971c0-0.669,0.211-1.248,0.641-1.718c0.423-0.473,1.033-0.84,1.839-1.083
	c0.794-0.247,1.756-0.372,2.863-0.372h0.696c-0.07-0.821-0.271-1.412-0.606-1.764c-0.337-0.352-0.845-0.528-1.529-0.528
	c-0.438,0-0.884,0.113-1.354,0.34c-0.47,0.227-0.899,0.543-1.295,0.954l-1.157-1.494c0.591-0.536,1.231-0.946,1.912-1.22
	c0.681-0.278,1.354-0.418,2.011-0.418C151.916,56.696,152.913,57.005,153.66,57.627"/>
<path d="M116.722,78.127h2.483v0.227c-0.074,0.082-0.121,0.164-0.141,0.262c-0.02,0.094-0.027,0.251-0.02,0.478v9.735h5.729v1.904
	h-8.053V78.127z"/>
<path d="M131.749,88.617c0.391-0.419,0.626-1.084,0.704-1.995h-0.458c-1.158,0-2.003,0.125-2.534,0.379
	c-0.536,0.247-0.802,0.646-0.802,1.186c0,0.368,0.133,0.638,0.398,0.81s0.634,0.254,1.104,0.254
	C130.829,89.25,131.365,89.043,131.749,88.617 M133.423,81.909c0.751,0.622,1.126,1.646,1.126,3.074v5.749h-2.166v-0.849
	c-0.36,0.345-0.799,0.614-1.307,0.806c-0.517,0.196-1.064,0.294-1.65,0.294c-0.979,0-1.729-0.247-2.237-0.731
	c-0.521-0.481-0.774-1.139-0.774-1.972c0-0.669,0.215-1.239,0.641-1.717c0.423-0.474,1.033-0.837,1.839-1.08
	c0.798-0.25,1.756-0.375,2.863-0.375h0.696c-0.07-0.821-0.267-1.408-0.606-1.76c-0.337-0.353-0.845-0.528-1.529-0.528
	c-0.438,0-0.884,0.113-1.354,0.34c-0.47,0.228-0.899,0.544-1.295,0.951l-1.153-1.486c0.59-0.544,1.228-0.951,1.908-1.229
	c0.685-0.273,1.354-0.415,2.011-0.415C131.687,80.981,132.676,81.291,133.423,81.909"/>
<path d="M141.797,88.844c0.309-0.203,0.575-0.532,0.778-0.985c0.207-0.45,0.313-1.033,0.313-1.737c0-0.966-0.181-1.736-0.536-2.327
	c-0.356-0.583-0.884-0.876-1.592-0.876c-0.673,0-1.135,0.266-1.393,0.806c-0.255,0.536-0.384,1.26-0.384,2.179
	c0,1.135,0.157,1.956,0.474,2.476c0.32,0.521,0.771,0.774,1.365,0.774C141.155,89.152,141.48,89.051,141.797,88.844 M139.735,90.725
	c-0.434-0.215-0.806-0.512-1.118-0.899l-0.306,0.911h-1.58V77.078h2.43v0.227c-0.075,0.079-0.122,0.165-0.138,0.263
	c-0.023,0.09-0.027,0.254-0.023,0.481v4.048c0.29-0.321,0.63-0.571,1.014-0.751c0.387-0.18,0.778-0.266,1.169-0.266
	c0.728,0,1.393,0.18,1.999,0.539c0.606,0.356,1.091,0.892,1.451,1.604c0.355,0.712,0.536,1.576,0.536,2.59
	c0,1.106-0.192,2.058-0.575,2.844c-0.392,0.794-0.892,1.389-1.518,1.787c-0.618,0.396-1.279,0.599-1.972,0.599
	C140.628,91.042,140.17,90.937,139.735,90.725"/>
<path d="M69.378,101.931h-0.004c-0.194,0-0.381-0.051-0.554-0.148L51.764,91.91l-17.06-9.88c-0.34-0.191-0.549-0.556-0.549-0.95
	V41.583c0-0.395,0.209-0.763,0.549-0.955l0.041-0.023l17.013-9.849h0.006l17.057-9.876c0.34-0.195,0.765-0.195,1.105,0l17.06,9.876
	l17.061,9.872c0.34,0.192,0.55,0.56,0.55,0.955c0,0.039,0,0.07-0.004,0.113V81.08c0,0.395-0.209,0.759-0.55,0.95l-17.053,9.88
	h-0.004l-17.056,9.872C69.758,101.88,69.57,101.931,69.378,101.931 M53.416,90.318l14.855,8.597V81.713L53.416,73.12V90.318z
	 M70.479,81.713v17.202l14.852-8.597V73.12L70.479,81.713z M36.359,80.442l14.851,8.597V71.845l-14.851-8.601V80.442z
	 M87.537,71.841v17.198l14.848-8.593V63.244L87.537,71.841z M54.513,71.203l14.861,8.602l14.859-8.602l-14.859-8.597L54.513,71.203z
	 M70.476,60.69l14.855,8.605l-0.004-17.198l-14.852-8.605V60.69z M36.359,60.69l14.851,8.605V52.097l-14.851-8.605V60.69z
	 M87.537,52.097v17.198l14.848-8.597V43.496L87.537,52.097z M53.42,52.093v17.202l14.852-8.605V43.492L53.42,52.093z M37.46,41.583
	l14.855,8.601l14.859-8.601l-14.859-8.601L37.46,41.583z M71.577,41.583l14.859,8.601l14.855-8.601l-14.855-8.601L71.577,41.583z
	 M54.513,31.71l14.861,8.593l14.859-8.593l-14.859-8.601L54.513,31.71z"/>
</svg>
